<?xml version="1.0" encoding="utf-8"?>
<!-- Generator: Adobe Illustrator 19.0.0, SVG Export Plug-In . SVG Version: 6.00 Build 0)  -->
<svg xmlns="http://www.w3.org/2000/svg" xmlns:xlink="http://www.w3.org/1999/xlink" version="1.1" x="0px" y="0px" viewBox="0 0 1400 980" style="enable-background:new 0 0 1400 980;" xml:space="preserve">
<style type="text/css">
	.st0{fill:#27AAE1;}
	.st1{fill:#18769D;}
	.st2{fill:#FFFFFF;}
	.st3{fill:#EBEBEC;}
	.st4{fill:#2AC5F4;}
	.st5{fill:#46B247;}
	.st6{fill:#BFD961;}
	.st7{fill:#D8D9DA;}
	.st8{fill:#696A6D;}
	.st9{fill:#4F5053;}
	.st10{fill:#F36E4E;}
	.st11{fill:#FFF459;}
	.st12{fill:#96D1A8;}
	.st13{fill:#DCDDDE;}
	.st14{fill:#28A3CA;}
	.st15{fill:#A9ABAE;}
	.st16{fill:#97999B;}
	.st17{fill:#EDA13E;}
	.st18{fill:#F0B83F;}
	.st19{fill:#FBD260;}
	.st20{fill:#F7DD5D;}
	.st21{fill:#F2B22F;}
	.st22{fill:#F4C84E;}
	.st23{fill:#006788;}
	.st24{fill:#85C9EF;}
	.st25{fill:#BEC0C2;}
	.st26{fill:#004057;}
</style>
<g id="bg">
	<g>
		<g>
			
		</g>
	</g>
</g>
<g id="lines">
	<g>
		<g>
			<rect x="461.5" y="220.2" class="st1" width="134.8" height="4.8"/>
		</g>
		<g>
			<rect x="634.6" y="220.2" class="st1" width="28.7" height="4.8"/>
		</g>
		<g>
			<rect x="461.5" y="239.7" class="st1" width="81.7" height="4.8"/>
		</g>
		<g>
			<rect x="78.2" y="413.7" class="st1" width="84.7" height="4.8"/>
		</g>
		<g>
			<rect x="59.3" y="433.1" class="st1" width="31.6" height="4.8"/>
		</g>
		<g>
			<rect x="688.8" y="256.4" class="st1" width="28.7" height="4.8"/>
		</g>
		<g>
			<rect x="703.2" y="276.6" class="st1" width="14.3" height="4.8"/>
		</g>
		<g>
			<rect x="433.1" y="746.2" class="st1" width="106" height="4.8"/>
		</g>
		<g>
			<rect x="514.9" y="782.4" class="st1" width="69.3" height="4.8"/>
		</g>
		<g>
			<rect x="569.8" y="802.5" class="st1" width="14.3" height="4.8"/>
		</g>
		<g>
			<rect x="1081.1" y="942.7" class="st1" width="107.3" height="4.8"/>
		</g>
		<g>
			<rect x="1218.8" y="942.7" class="st1" width="22.8" height="4.8"/>
		</g>
	</g>
</g>
<g id="lorem">
	<g>
		<g>
			<path class="st2" d="M84.6,850.3c-0.4,0.1-1.6,0.1-3,0.1c-1.7,0-3.3-0.3-3.3-2.9v-8.5c0-0.2,0.1-0.3,0.3-0.3h0.8     c0.2,0,0.3,0.1,0.3,0.3v8.5c0,1.2,0.3,1.6,1.9,1.6h3c0.1,0,0.2,0.1,0.2,0.2v0.7C84.8,850.2,84.7,850.3,84.6,850.3z"/>
			<path class="st2" d="M89.3,850.5c-2.3,0-3.5-1.5-3.5-3.8v-1.2c0-2.3,1.2-3.8,3.5-3.8c2.3,0,3.5,1.5,3.5,3.8v1.2     C92.8,849,91.6,850.5,89.3,850.5z M91.4,845.5c0-1.6-0.6-2.6-2.1-2.6c-1.5,0-2.1,1-2.1,2.6v1.2c0,1.6,0.6,2.6,2.1,2.6     c1.5,0,2.1-1,2.1-2.6V845.5z"/>
			<path class="st2" d="M98.2,842.9c-0.7,0-1.4,0.2-2.2,0.7v6.5c0,0.2-0.1,0.3-0.3,0.3h-0.8c-0.2,0-0.3-0.1-0.3-0.3v-8     c0-0.2,0.1-0.3,0.3-0.3h0.7c0.2,0,0.3,0.1,0.3,0.3v0.3c0.8-0.5,1.5-0.7,2.2-0.7c0.2,0,0.3,0.1,0.3,0.3v0.6     C98.5,842.8,98.4,842.9,98.2,842.9z"/>
			<path class="st2" d="M106.3,846.5h-5.2v0.2c0,1.9,0.7,2.5,2.2,2.5c0.9,0,2.1-0.1,2.8-0.2c0,0,0,0,0.1,0c0.1,0,0.2,0.1,0.2,0.2     v0.5c0,0.2-0.1,0.3-0.3,0.4c-0.9,0.2-1.7,0.3-2.8,0.3c-1.8,0-3.5-0.8-3.5-3.7v-1.4c0-2.2,1.2-3.7,3.5-3.7c2.3,0,3.4,1.4,3.4,3.7     v0.8C106.6,846.4,106.5,846.5,106.3,846.5z M105.2,845.3c0-1.8-0.7-2.5-2-2.5c-1.3,0-2.1,0.8-2.1,2.5v0.1h4.1V845.3z"/>
			<path class="st2" d="M118.5,850.4h-0.7c-0.2,0-0.3-0.1-0.3-0.3v-5.5c0-1.3-0.6-1.7-1.4-1.7c-0.6,0-1.2,0.2-1.8,0.4     c0.1,0.3,0.1,0.7,0.1,1.2v5.6c0,0.2-0.1,0.3-0.3,0.3h-0.8c-0.2,0-0.3-0.1-0.3-0.3v-5.6c0-1.4-0.4-1.6-1.2-1.6     c-0.6,0-1.2,0.3-1.9,0.6v6.6c0,0.2-0.1,0.3-0.3,0.3h-0.8c-0.2,0-0.3-0.1-0.3-0.3v-8c0-0.2,0.1-0.3,0.3-0.3h0.8     c0.2,0,0.3,0.1,0.3,0.3v0.3c0.6-0.4,1.4-0.7,2.3-0.7c0.7,0,1.2,0.2,1.6,0.6c0.9-0.4,1.8-0.6,2.6-0.6c1.4,0,2.5,0.7,2.5,2.9v5.5     C118.8,850.2,118.6,850.4,118.5,850.4z"/>
			<path class="st2" d="M126,840.4h-0.8c-0.2,0-0.3-0.1-0.3-0.3v-1.2c0-0.2,0.1-0.3,0.3-0.3h0.8c0.2,0,0.3,0.1,0.3,0.3v1.2     C126.3,840.3,126.2,840.4,126,840.4z M126,850.4h-0.7c-0.2,0-0.3-0.1-0.3-0.3v-8c0-0.2,0.1-0.3,0.3-0.3h0.7     c0.2,0,0.3,0.1,0.3,0.3v8C126.3,850.2,126.2,850.4,126,850.4z"/>
			<path class="st2" d="M131.8,850.5c-0.5,0-1.2-0.1-1.8-0.2v2.8c0,0.2-0.1,0.3-0.3,0.3h-0.8c-0.2,0-0.3-0.1-0.3-0.3v-10.7     c0-0.2,0-0.3,0.3-0.4c0.8-0.2,1.9-0.4,2.9-0.4c2.3,0,3.4,1.5,3.4,3.9v1.1C135.2,849.1,134.1,850.5,131.8,850.5z M133.8,845.5     c0-1.6-0.5-2.7-2-2.7c-0.7,0-1.4,0.1-1.8,0.2v6.2c0.5,0.1,1.3,0.2,1.8,0.2c1.5,0,2-1,2-2.7V845.5z"/>
			<path class="st2" d="M139.6,850.5c-0.6,0-1.7,0-2.5-0.2c-0.2,0-0.3-0.1-0.3-0.3v-0.5c0-0.1,0.1-0.2,0.3-0.2c0,0,0,0,0.1,0     c0.7,0.1,1.9,0.2,2.5,0.2c1,0,1.5-0.3,1.5-1.1c0-0.5-0.3-0.8-1.2-1.3l-1.6-0.9c-1-0.6-1.6-1.2-1.6-2.2c0-1.6,1.2-2.1,2.8-2.1     c0.9,0,1.7,0.1,2.4,0.2c0.2,0,0.3,0.1,0.3,0.3v0.5c0,0.2-0.1,0.3-0.3,0.3c0,0,0,0,0,0c-0.5,0-1.5-0.1-2.4-0.1     c-0.9,0-1.5,0.1-1.5,0.9c0,0.5,0.4,0.8,1.1,1.2l1.5,0.9c1.3,0.8,1.7,1.4,1.7,2.4C142.5,849.8,141.3,850.5,139.6,850.5z"/>
			<path class="st2" d="M150.6,850.4h-0.8c-0.2,0-0.3-0.1-0.3-0.3v-0.3c-0.9,0.5-1.6,0.7-2.5,0.7c-1.9,0-2.7-1.2-2.7-3.2v-5.1     c0-0.2,0.1-0.3,0.3-0.3h0.7c0.2,0,0.3,0.1,0.3,0.3v5.1c0,1.6,0.5,2.1,1.7,2.1c0.7,0,1.4-0.2,2.1-0.6v-6.6c0-0.2,0.1-0.3,0.3-0.3     h0.8c0.2,0,0.3,0.1,0.3,0.3v8C150.9,850.2,150.8,850.4,150.6,850.4z"/>
			<path class="st2" d="M163,850.4h-0.7c-0.2,0-0.3-0.1-0.3-0.3v-5.5c0-1.3-0.6-1.7-1.4-1.7c-0.6,0-1.2,0.2-1.8,0.4     c0.1,0.3,0.1,0.7,0.1,1.2v5.6c0,0.2-0.1,0.3-0.3,0.3h-0.8c-0.2,0-0.3-0.1-0.3-0.3v-5.6c0-1.4-0.4-1.6-1.2-1.6     c-0.6,0-1.2,0.3-1.9,0.6v6.6c0,0.2-0.1,0.3-0.3,0.3h-0.8c-0.2,0-0.3-0.1-0.3-0.3v-8c0-0.2,0.1-0.3,0.3-0.3h0.8     c0.2,0,0.3,0.1,0.3,0.3v0.3c0.6-0.4,1.4-0.7,2.3-0.7c0.7,0,1.2,0.2,1.6,0.6c0.9-0.4,1.8-0.6,2.6-0.6c1.4,0,2.5,0.7,2.5,2.9v5.5     C163.4,850.2,163.2,850.4,163,850.4z"/>
			<path class="st2" d="M175.3,850.2c-1,0.2-1.9,0.3-2.9,0.3c-2.3,0-3.4-1.5-3.4-3.9v-1.1c0-2.5,1.1-3.8,3.4-3.8     c0.5,0,1.2,0,1.8,0.2v-2.9c0-0.2,0.1-0.3,0.3-0.3h0.8c0.2,0,0.3,0.1,0.3,0.3v10.9C175.6,850.1,175.6,850.2,175.3,850.2z      M174.3,843c-0.5-0.1-1.3-0.1-1.8-0.1c-1.5,0-2,1-2,2.6v1.1c0,1.7,0.5,2.7,2,2.7c0.5,0,1.3,0,1.8-0.1V843z"/>
			<path class="st2" d="M181,850.5c-2.3,0-3.5-1.5-3.5-3.8v-1.2c0-2.3,1.2-3.8,3.5-3.8c2.3,0,3.5,1.5,3.5,3.8v1.2     C184.4,849,183.2,850.5,181,850.5z M183.1,845.5c0-1.6-0.6-2.6-2.1-2.6c-1.5,0-2.1,1-2.1,2.6v1.2c0,1.6,0.6,2.6,2.1,2.6     c1.5,0,2.1-1,2.1-2.6V845.5z"/>
			<path class="st2" d="M187.5,850.4h-0.8c-0.2,0-0.3-0.1-0.3-0.3v-11.1c0-0.2,0.1-0.3,0.3-0.3h0.8c0.2,0,0.3,0.1,0.3,0.3v11.1     C187.8,850.2,187.7,850.4,187.5,850.4z"/>
			<path class="st2" d="M193.3,850.5c-2.3,0-3.5-1.5-3.5-3.8v-1.2c0-2.3,1.2-3.8,3.5-3.8c2.3,0,3.5,1.5,3.5,3.8v1.2     C196.7,849,195.6,850.5,193.3,850.5z M195.4,845.5c0-1.6-0.6-2.6-2.1-2.6c-1.5,0-2.1,1-2.1,2.6v1.2c0,1.6,0.6,2.6,2.1,2.6     c1.5,0,2.1-1,2.1-2.6V845.5z"/>
			<path class="st2" d="M202.1,842.9c-0.7,0-1.4,0.2-2.2,0.7v6.5c0,0.2-0.1,0.3-0.3,0.3h-0.8c-0.2,0-0.3-0.1-0.3-0.3v-8     c0-0.2,0.1-0.3,0.3-0.3h0.7c0.2,0,0.3,0.1,0.3,0.3v0.3c0.8-0.5,1.5-0.7,2.2-0.7c0.2,0,0.3,0.1,0.3,0.3v0.6     C202.4,842.8,202.3,842.9,202.1,842.9z"/>
			<path class="st2" d="M210.3,850.5c-0.6,0-1.7,0-2.5-0.2c-0.2,0-0.3-0.1-0.3-0.3v-0.5c0-0.1,0.1-0.2,0.3-0.2c0,0,0,0,0.1,0     c0.7,0.1,1.9,0.2,2.5,0.2c1,0,1.5-0.3,1.5-1.1c0-0.5-0.3-0.8-1.2-1.3l-1.6-0.9c-1-0.6-1.6-1.2-1.6-2.2c0-1.6,1.2-2.1,2.8-2.1     c0.9,0,1.7,0.1,2.4,0.2c0.2,0,0.3,0.1,0.3,0.3v0.5c0,0.2-0.1,0.3-0.3,0.3c0,0,0,0,0,0c-0.5,0-1.5-0.1-2.4-0.1     c-0.9,0-1.5,0.1-1.5,0.9c0,0.5,0.4,0.8,1.1,1.2l1.5,0.9c1.3,0.8,1.7,1.4,1.7,2.4C213.2,849.8,212,850.5,210.3,850.5z"/>
			<path class="st2" d="M216.3,840.4h-0.8c-0.2,0-0.3-0.1-0.3-0.3v-1.2c0-0.2,0.1-0.3,0.3-0.3h0.8c0.2,0,0.3,0.1,0.3,0.3v1.2     C216.6,840.3,216.5,840.4,216.3,840.4z M216.3,850.4h-0.7c-0.2,0-0.3-0.1-0.3-0.3v-8c0-0.2,0.1-0.3,0.3-0.3h0.7     c0.2,0,0.3,0.1,0.3,0.3v8C216.6,850.2,216.5,850.4,216.3,850.4z"/>
			<path class="st2" d="M223.2,850.4c-0.3,0-0.7,0.1-1,0.1c-1.4,0-2.1-0.4-2.1-2.1v-5.4l-1.5-0.2c-0.2,0-0.3-0.1-0.3-0.3v-0.4     c0-0.2,0.1-0.3,0.3-0.3h1.5v-1.5c0-0.2,0.1-0.3,0.3-0.3l0.8-0.1c0,0,0,0,0,0c0.1,0,0.2,0.1,0.2,0.3v1.7h1.7     c0.2,0,0.3,0.1,0.3,0.3v0.5c0,0.2-0.1,0.3-0.3,0.3h-1.7v5.4c0,0.9,0.2,1,0.8,1h0.9c0.2,0,0.3,0.1,0.3,0.2v0.5     C223.5,850.3,223.4,850.4,223.2,850.4z"/>
			<path class="st2" d="M234.4,850.4h-0.7c-0.2,0-0.3-0.1-0.3-0.3v-0.3c-0.7,0.4-1.5,0.8-2.4,0.8c-1.3,0-2.5-0.6-2.5-2.5v-0.2     c0-1.7,1-2.5,3.8-2.5h1.2v-0.6c0-1.3-0.5-1.8-1.7-1.8c-1,0-1.8,0.1-2.4,0.1c0,0,0,0-0.1,0c-0.1,0-0.3,0-0.3-0.2v-0.5     c0-0.2,0.1-0.3,0.3-0.3c0.6-0.1,1.4-0.2,2.4-0.2c2.2,0,3,1.1,3,2.9v5.4C234.7,850.2,234.6,850.4,234.4,850.4z M233.4,846.2h-1.2     c-1.9,0-2.4,0.4-2.4,1.5v0.2c0,1.1,0.5,1.4,1.4,1.4c0.7,0,1.4-0.2,2.1-0.6V846.2z"/>
			<path class="st2" d="M246.9,850.4h-0.7c-0.2,0-0.3-0.1-0.3-0.3v-5.5c0-1.3-0.6-1.7-1.4-1.7c-0.6,0-1.2,0.2-1.8,0.4     c0.1,0.3,0.1,0.7,0.1,1.2v5.6c0,0.2-0.1,0.3-0.3,0.3h-0.8c-0.2,0-0.3-0.1-0.3-0.3v-5.6c0-1.4-0.4-1.6-1.2-1.6     c-0.6,0-1.2,0.3-1.9,0.6v6.6c0,0.2-0.1,0.3-0.3,0.3h-0.8c-0.2,0-0.3-0.1-0.3-0.3v-8c0-0.2,0.1-0.3,0.3-0.3h0.8     c0.2,0,0.3,0.1,0.3,0.3v0.3c0.6-0.4,1.4-0.7,2.3-0.7c0.7,0,1.2,0.2,1.6,0.6c0.9-0.4,1.8-0.6,2.6-0.6c1.4,0,2.5,0.7,2.5,2.9v5.5     C247.2,850.2,247.1,850.4,246.9,850.4z"/>
			<path class="st2" d="M255.6,846.5h-5.2v0.2c0,1.9,0.7,2.5,2.2,2.5c0.9,0,2.1-0.1,2.8-0.2c0,0,0,0,0.1,0c0.1,0,0.2,0.1,0.2,0.2     v0.5c0,0.2-0.1,0.3-0.3,0.4c-0.9,0.2-1.7,0.3-2.8,0.3c-1.8,0-3.5-0.8-3.5-3.7v-1.4c0-2.2,1.2-3.7,3.5-3.7c2.3,0,3.4,1.4,3.4,3.7     v0.8C255.9,846.4,255.8,846.5,255.6,846.5z M254.5,845.3c0-1.8-0.7-2.5-2-2.5c-1.3,0-2.1,0.8-2.1,2.5v0.1h4.1V845.3z"/>
			<path class="st2" d="M262.1,850.4c-0.3,0-0.7,0.1-1,0.1c-1.4,0-2.1-0.4-2.1-2.1v-5.4l-1.5-0.2c-0.2,0-0.3-0.1-0.3-0.3v-0.4     c0-0.2,0.1-0.3,0.3-0.3h1.5v-1.5c0-0.2,0.1-0.3,0.3-0.3l0.8-0.1c0,0,0,0,0,0c0.1,0,0.2,0.1,0.2,0.3v1.7h1.7     c0.2,0,0.3,0.1,0.3,0.3v0.5c0,0.2-0.1,0.3-0.3,0.3h-1.7v5.4c0,0.9,0.2,1,0.8,1h0.9c0.2,0,0.3,0.1,0.3,0.2v0.5     C262.4,850.3,262.3,850.4,262.1,850.4z"/>
			<path class="st2" d="M265.4,848.7l-1.2,3c-0.1,0.2-0.1,0.3-0.3,0.3h-0.6c-0.1,0-0.2-0.1-0.2-0.2c0,0,0-0.1,0-0.1l0.9-3     c0.1-0.2,0.1-0.3,0.3-0.3h0.9c0.1,0,0.2,0.1,0.2,0.2C265.4,848.6,265.4,848.6,265.4,848.7z"/>
			<path class="st2" d="M277.3,846.5h-5.2v0.2c0,1.9,0.7,2.5,2.2,2.5c0.9,0,2.1-0.1,2.8-0.2c0,0,0,0,0.1,0c0.1,0,0.2,0.1,0.2,0.2     v0.5c0,0.2-0.1,0.3-0.3,0.4c-0.9,0.2-1.7,0.3-2.8,0.3c-1.8,0-3.5-0.8-3.5-3.7v-1.4c0-2.2,1.2-3.7,3.5-3.7c2.3,0,3.4,1.4,3.4,3.7     v0.8C277.6,846.4,277.5,846.5,277.3,846.5z M276.2,845.3c0-1.8-0.7-2.5-2-2.5c-1.3,0-2.1,0.8-2.1,2.5v0.1h4.1V845.3z"/>
			<path class="st2" d="M285.8,850.4H285c-0.2,0-0.3-0.1-0.3-0.3v-0.3c-0.9,0.5-1.6,0.7-2.5,0.7c-1.9,0-2.7-1.2-2.7-3.2v-5.1     c0-0.2,0.1-0.3,0.3-0.3h0.7c0.2,0,0.3,0.1,0.3,0.3v5.1c0,1.6,0.5,2.1,1.7,2.1c0.7,0,1.4-0.2,2.1-0.6v-6.6c0-0.2,0.1-0.3,0.3-0.3     h0.8c0.2,0,0.3,0.1,0.3,0.3v8C286.1,850.2,285.9,850.4,285.8,850.4z"/>
			<path class="st2" d="M295.2,850.5c-2.3,0-3.5-1.5-3.5-3.8v-1.2c0-2.3,1.2-3.8,3.5-3.8c2.3,0,3.5,1.5,3.5,3.8v1.2     C298.7,849,297.5,850.5,295.2,850.5z M297.3,845.5c0-1.6-0.6-2.6-2.1-2.6c-1.5,0-2.1,1-2.1,2.6v1.2c0,1.6,0.6,2.6,2.1,2.6     c1.5,0,2.1-1,2.1-2.6V845.5z"/>
			<path class="st2" d="M303.8,850.5c-0.5,0-1.2-0.1-1.8-0.2v2.8c0,0.2-0.1,0.3-0.3,0.3h-0.8c-0.2,0-0.3-0.1-0.3-0.3v-10.7     c0-0.2,0-0.3,0.3-0.4c0.8-0.2,1.9-0.4,2.9-0.4c2.3,0,3.4,1.5,3.4,3.9v1.1C307.2,849.1,306,850.5,303.8,850.5z M305.8,845.5     c0-1.6-0.5-2.7-2-2.7c-0.7,0-1.4,0.1-1.8,0.2v6.2c0.5,0.1,1.3,0.2,1.8,0.2c1.5,0,2-1,2-2.7V845.5z"/>
			<path class="st2" d="M313.3,850.4c-0.3,0-0.7,0.1-1,0.1c-1.4,0-2.1-0.4-2.1-2.1v-5.4l-1.5-0.2c-0.2,0-0.3-0.1-0.3-0.3v-0.4     c0-0.2,0.1-0.3,0.3-0.3h1.5v-1.5c0-0.2,0.1-0.3,0.3-0.3l0.8-0.1c0,0,0,0,0,0c0.1,0,0.2,0.1,0.2,0.3v1.7h1.7     c0.2,0,0.3,0.1,0.3,0.3v0.5c0,0.2-0.1,0.3-0.3,0.3h-1.7v5.4c0,0.9,0.2,1,0.8,1h0.9c0.2,0,0.3,0.1,0.3,0.2v0.5     C313.5,850.3,313.5,850.4,313.3,850.4z"/>
			<path class="st2" d="M316.3,840.4h-0.8c-0.2,0-0.3-0.1-0.3-0.3v-1.2c0-0.2,0.1-0.3,0.3-0.3h0.8c0.2,0,0.3,0.1,0.3,0.3v1.2     C316.6,840.3,316.4,840.4,316.3,840.4z M316.2,850.4h-0.8c-0.2,0-0.3-0.1-0.3-0.3v-8c0-0.2,0.1-0.3,0.3-0.3h0.8     c0.2,0,0.3,0.1,0.3,0.3v8C316.5,850.2,316.4,850.4,316.2,850.4z"/>
			<path class="st2" d="M322,850.5c-2.3,0-3.5-1.5-3.5-3.8v-1.2c0-2.3,1.2-3.8,3.5-3.8c2.3,0,3.5,1.5,3.5,3.8v1.2     C325.5,849,324.3,850.5,322,850.5z M324.1,845.5c0-1.6-0.6-2.6-2.1-2.6c-1.5,0-2.1,1-2.1,2.6v1.2c0,1.6,0.6,2.6,2.1,2.6     c1.5,0,2.1-1,2.1-2.6V845.5z"/>
			<path class="st2" d="M333.6,850.4h-0.8c-0.2,0-0.3-0.1-0.3-0.3v-5.1c0-1.6-0.5-2.1-1.7-2.1c-0.7,0-1.4,0.2-2.1,0.6v6.6     c0,0.2-0.1,0.3-0.3,0.3h-0.8c-0.2,0-0.3-0.1-0.3-0.3v-8c0-0.2,0.1-0.3,0.3-0.3h0.8c0.2,0,0.3,0.1,0.3,0.3v0.3     c0.9-0.5,1.6-0.7,2.5-0.7c1.9,0,2.7,1.2,2.7,3.2v5.1C333.9,850.2,333.8,850.4,333.6,850.4z"/>
			<path class="st2" d="M342.4,850.5c-0.6,0-1.7,0-2.5-0.2c-0.2,0-0.3-0.1-0.3-0.3v-0.5c0-0.1,0.1-0.2,0.3-0.2c0,0,0,0,0.1,0     c0.7,0.1,1.9,0.2,2.5,0.2c1,0,1.5-0.3,1.5-1.1c0-0.5-0.3-0.8-1.2-1.3l-1.6-0.9c-1-0.6-1.6-1.2-1.6-2.2c0-1.6,1.2-2.1,2.8-2.1     c0.9,0,1.7,0.1,2.4,0.2c0.2,0,0.3,0.1,0.3,0.3v0.5c0,0.2-0.1,0.3-0.3,0.3c0,0,0,0,0,0c-0.5,0-1.5-0.1-2.4-0.1     c-0.9,0-1.5,0.1-1.5,0.9c0,0.5,0.4,0.8,1.1,1.2l1.5,0.9c1.3,0.8,1.7,1.4,1.7,2.4C345.3,849.8,344.2,850.5,342.4,850.5z"/>
			<path class="st2" d="M353.5,846.5h-5.2v0.2c0,1.9,0.7,2.5,2.2,2.5c0.9,0,2.1-0.1,2.8-0.2c0,0,0,0,0.1,0c0.1,0,0.2,0.1,0.2,0.2     v0.5c0,0.2-0.1,0.3-0.3,0.4c-0.9,0.2-1.7,0.3-2.8,0.3c-1.8,0-3.5-0.8-3.5-3.7v-1.4c0-2.2,1.2-3.7,3.5-3.7c2.3,0,3.4,1.4,3.4,3.7     v0.8C353.8,846.4,353.7,846.5,353.5,846.5z M352.4,845.3c0-1.8-0.7-2.5-2-2.5c-1.3,0-2.1,0.8-2.1,2.5v0.1h4.1V845.3z"/>
			<path class="st2" d="M361.9,850.4h-0.8c-0.2,0-0.3-0.1-0.3-0.3v-5.1c0-1.6-0.5-2.1-1.7-2.1c-0.7,0-1.4,0.2-2.1,0.6v6.6     c0,0.2-0.1,0.3-0.3,0.3H356c-0.2,0-0.3-0.1-0.3-0.3v-8c0-0.2,0.1-0.3,0.3-0.3h0.8c0.2,0,0.3,0.1,0.3,0.3v0.3     c0.9-0.5,1.6-0.7,2.5-0.7c1.9,0,2.7,1.2,2.7,3.2v5.1C362.2,850.2,362.1,850.4,361.9,850.4z"/>
			<path class="st2" d="M366.9,850.5c-0.6,0-1.7,0-2.5-0.2c-0.2,0-0.3-0.1-0.3-0.3v-0.5c0-0.1,0.1-0.2,0.3-0.2c0,0,0,0,0.1,0     c0.7,0.1,1.9,0.2,2.5,0.2c1,0,1.5-0.3,1.5-1.1c0-0.5-0.3-0.8-1.2-1.3l-1.6-0.9c-1-0.6-1.6-1.2-1.6-2.2c0-1.6,1.2-2.1,2.8-2.1     c0.9,0,1.7,0.1,2.4,0.2c0.2,0,0.3,0.1,0.3,0.3v0.5c0,0.2-0.1,0.3-0.3,0.3c0,0,0,0,0,0c-0.5,0-1.5-0.1-2.4-0.1     c-0.9,0-1.5,0.1-1.5,0.9c0,0.5,0.4,0.8,1.1,1.2l1.5,0.9c1.3,0.8,1.7,1.4,1.7,2.4C369.8,849.8,368.6,850.5,366.9,850.5z"/>
			<path class="st2" d="M372.9,840.4h-0.8c-0.2,0-0.3-0.1-0.3-0.3v-1.2c0-0.2,0.1-0.3,0.3-0.3h0.8c0.2,0,0.3,0.1,0.3,0.3v1.2     C373.2,840.3,373.1,840.4,372.9,840.4z M372.9,850.4h-0.8c-0.2,0-0.3-0.1-0.3-0.3v-8c0-0.2,0.1-0.3,0.3-0.3h0.8     c0.2,0,0.3,0.1,0.3,0.3v8C373.2,850.2,373,850.4,372.9,850.4z"/>
			<path class="st2" d="M378.7,850.5c-0.9,0-1.9-0.1-2.9-0.3c-0.3,0-0.3-0.1-0.3-0.4v-10.9c0-0.2,0.1-0.3,0.3-0.3h0.8     c0.2,0,0.3,0.1,0.3,0.3v2.9c0.6-0.1,1.3-0.2,1.8-0.2c2.3,0,3.4,1.4,3.4,3.8v1.1C382.1,849,381,850.5,378.7,850.5z M380.7,845.5     c0-1.7-0.5-2.6-2-2.6c-0.5,0-1.3,0-1.8,0.1v6.2c0.5,0,1.3,0.1,1.8,0.1c1.5,0,2-1,2-2.7V845.5z"/>
			<path class="st2" d="M390.2,850.4h-0.8c-0.2,0-0.3-0.1-0.3-0.3v-0.3c-0.9,0.5-1.6,0.7-2.5,0.7c-1.9,0-2.7-1.2-2.7-3.2v-5.1     c0-0.2,0.1-0.3,0.3-0.3h0.7c0.2,0,0.3,0.1,0.3,0.3v5.1c0,1.6,0.5,2.1,1.7,2.1c0.7,0,1.4-0.2,2.1-0.6v-6.6c0-0.2,0.1-0.3,0.3-0.3     h0.8c0.2,0,0.3,0.1,0.3,0.3v8C390.5,850.2,390.4,850.4,390.2,850.4z"/>
			<path class="st2" d="M395.1,850.5c-0.6,0-1.7,0-2.5-0.2c-0.2,0-0.3-0.1-0.3-0.3v-0.5c0-0.1,0.1-0.2,0.3-0.2c0,0,0,0,0.1,0     c0.7,0.1,1.9,0.2,2.5,0.2c1,0,1.5-0.3,1.5-1.1c0-0.5-0.3-0.8-1.2-1.3l-1.6-0.9c-1-0.6-1.6-1.2-1.6-2.2c0-1.6,1.2-2.1,2.8-2.1     c0.9,0,1.7,0.1,2.4,0.2c0.2,0,0.3,0.1,0.3,0.3v0.5c0,0.2-0.1,0.3-0.3,0.3c0,0,0,0,0,0c-0.5,0-1.5-0.1-2.4-0.1     c-0.9,0-1.5,0.1-1.5,0.9c0,0.5,0.4,0.8,1.1,1.2l1.5,0.9c1.3,0.8,1.7,1.4,1.7,2.4C398.1,849.8,396.9,850.5,395.1,850.5z"/>
			<path class="st2" d="M413.8,850.4H413c-0.2,0-0.3-0.1-0.3-0.3v-5.5c0-1.3-0.6-1.7-1.4-1.7c-0.6,0-1.2,0.2-1.8,0.4     c0.1,0.3,0.1,0.7,0.1,1.2v5.6c0,0.2-0.1,0.3-0.3,0.3h-0.8c-0.2,0-0.3-0.1-0.3-0.3v-5.6c0-1.4-0.4-1.6-1.2-1.6     c-0.6,0-1.2,0.3-1.9,0.6v6.6c0,0.2-0.1,0.3-0.3,0.3H404c-0.2,0-0.3-0.1-0.3-0.3v-8c0-0.2,0.1-0.3,0.3-0.3h0.8     c0.2,0,0.3,0.1,0.3,0.3v0.3c0.6-0.4,1.4-0.7,2.3-0.7c0.7,0,1.2,0.2,1.6,0.6c0.9-0.4,1.8-0.6,2.6-0.6c1.4,0,2.5,0.7,2.5,2.9v5.5     C414.1,850.2,413.9,850.4,413.8,850.4z"/>
			<path class="st2" d="M422.5,846.5h-5.2v0.2c0,1.9,0.7,2.5,2.2,2.5c0.9,0,2.1-0.1,2.8-0.2c0,0,0,0,0.1,0c0.1,0,0.2,0.1,0.2,0.2     v0.5c0,0.2-0.1,0.3-0.3,0.4c-0.9,0.2-1.7,0.3-2.8,0.3c-1.8,0-3.5-0.8-3.5-3.7v-1.4c0-2.2,1.2-3.7,3.5-3.7c2.3,0,3.4,1.4,3.4,3.7     v0.8C422.8,846.4,422.7,846.5,422.5,846.5z M421.4,845.3c0-1.8-0.7-2.5-2-2.5c-1.3,0-2.1,0.8-2.1,2.5v0.1h4.1V845.3z"/>
			<path class="st2" d="M425.9,850.4h-0.8c-0.2,0-0.3-0.1-0.3-0.3v-11.1c0-0.2,0.1-0.3,0.3-0.3h0.8c0.2,0,0.3,0.1,0.3,0.3v11.1     C426.2,850.2,426.1,850.4,425.9,850.4z"/>
			<path class="st2" d="M430,848.7l-1.2,3c-0.1,0.2-0.1,0.3-0.3,0.3h-0.6c-0.1,0-0.2-0.1-0.2-0.2c0,0,0-0.1,0-0.1l0.9-3     c0.1-0.2,0.1-0.3,0.3-0.3h0.9c0.1,0,0.2,0.1,0.2,0.2C430.1,848.6,430.1,848.6,430,848.7z"/>
			<path class="st2" d="M83.8,869.1H83c-0.2,0-0.3-0.1-0.3-0.3v-0.3c-0.7,0.4-1.5,0.8-2.4,0.8c-1.3,0-2.5-0.6-2.5-2.5v-0.2     c0-1.7,1-2.5,3.8-2.5h1.2v-0.6c0-1.3-0.5-1.8-1.7-1.8c-1,0-1.8,0.1-2.4,0.1c0,0,0,0-0.1,0c-0.1,0-0.3,0-0.3-0.2v-0.5     c0-0.2,0.1-0.3,0.3-0.3c0.6-0.1,1.4-0.2,2.4-0.2c2.2,0,3,1.1,3,2.9v5.4C84.1,869,83.9,869.1,83.8,869.1z M82.7,864.9h-1.2     c-1.9,0-2.4,0.4-2.4,1.5v0.2c0,1.1,0.5,1.4,1.4,1.4c0.7,0,1.4-0.2,2.1-0.6V864.9z"/>
			<path class="st2" d="M89.4,869.2c-0.5,0-1.2-0.1-1.8-0.2v2.8c0,0.2-0.1,0.3-0.3,0.3h-0.8c-0.2,0-0.3-0.1-0.3-0.3v-10.7     c0-0.2,0-0.3,0.3-0.4c0.8-0.2,1.9-0.4,2.9-0.4c2.3,0,3.4,1.5,3.4,3.9v1.1C92.8,867.8,91.7,869.2,89.4,869.2z M91.4,864.3     c0-1.6-0.5-2.7-2-2.7c-0.7,0-1.4,0.1-1.8,0.2v6.2c0.5,0.1,1.3,0.2,1.8,0.2c1.5,0,2-1,2-2.7V864.3z"/>
			<path class="st2" d="M101,865.2h-5.2v0.2c0,1.9,0.7,2.5,2.2,2.5c0.9,0,2.1-0.1,2.8-0.2c0,0,0,0,0.1,0c0.1,0,0.2,0.1,0.2,0.2v0.5     c0,0.2-0.1,0.3-0.3,0.4c-0.9,0.2-1.7,0.3-2.8,0.3c-1.8,0-3.5-0.8-3.5-3.7v-1.4c0-2.2,1.2-3.7,3.5-3.7c2.3,0,3.4,1.4,3.4,3.7v0.8     C101.3,865.1,101.1,865.2,101,865.2z M99.9,864.1c0-1.8-0.7-2.5-2-2.5c-1.3,0-2.1,0.8-2.1,2.5v0.1h4.1V864.1z"/>
			<path class="st2" d="M106.7,861.6c-0.7,0-1.4,0.2-2.2,0.7v6.5c0,0.2-0.1,0.3-0.3,0.3h-0.8c-0.2,0-0.3-0.1-0.3-0.3v-8     c0-0.2,0.1-0.3,0.3-0.3h0.7c0.2,0,0.3,0.1,0.3,0.3v0.3c0.8-0.5,1.5-0.7,2.2-0.7c0.2,0,0.3,0.1,0.3,0.3v0.6     C107,861.5,106.9,861.6,106.7,861.6z"/>
			<path class="st2" d="M109.7,859.1h-0.8c-0.2,0-0.3-0.1-0.3-0.3v-1.2c0-0.2,0.1-0.3,0.3-0.3h0.8c0.2,0,0.3,0.1,0.3,0.3v1.2     C110,859,109.9,859.1,109.7,859.1z M109.7,869.1h-0.7c-0.2,0-0.3-0.1-0.3-0.3v-8c0-0.2,0.1-0.3,0.3-0.3h0.7     c0.2,0,0.3,0.1,0.3,0.3v8C110,869,109.9,869.1,109.7,869.1z"/>
			<path class="st2" d="M118,869.1h-0.7c-0.2,0-0.3-0.1-0.3-0.3v-0.3c-0.7,0.4-1.5,0.8-2.4,0.8c-1.3,0-2.5-0.6-2.5-2.5v-0.2     c0-1.7,1-2.5,3.8-2.5h1.2v-0.6c0-1.3-0.5-1.8-1.7-1.8c-1,0-1.8,0.1-2.4,0.1c0,0,0,0-0.1,0c-0.1,0-0.3,0-0.3-0.2v-0.5     c0-0.2,0.1-0.3,0.3-0.3c0.6-0.1,1.4-0.2,2.4-0.2c2.2,0,3,1.1,3,2.9v5.4C118.3,869,118.2,869.1,118,869.1z M116.9,864.9h-1.2     c-1.9,0-2.4,0.4-2.4,1.5v0.2c0,1.1,0.5,1.4,1.4,1.4c0.7,0,1.4-0.2,2.1-0.6V864.9z"/>
			<path class="st2" d="M130.4,869.1h-0.7c-0.2,0-0.3-0.1-0.3-0.3v-5.5c0-1.3-0.6-1.7-1.4-1.7c-0.6,0-1.2,0.2-1.8,0.4     c0.1,0.3,0.1,0.7,0.1,1.2v5.6c0,0.2-0.1,0.3-0.3,0.3h-0.8c-0.2,0-0.3-0.1-0.3-0.3v-5.6c0-1.4-0.4-1.6-1.2-1.6     c-0.6,0-1.2,0.3-1.9,0.6v6.6c0,0.2-0.1,0.3-0.3,0.3h-0.8c-0.2,0-0.3-0.1-0.3-0.3v-8c0-0.2,0.1-0.3,0.3-0.3h0.8     c0.2,0,0.3,0.1,0.3,0.3v0.3c0.6-0.4,1.4-0.7,2.3-0.7c0.7,0,1.2,0.2,1.6,0.6c0.9-0.4,1.8-0.6,2.6-0.6c1.4,0,2.5,0.7,2.5,2.9v5.5     C130.8,869,130.6,869.1,130.4,869.1z"/>
			<path class="st2" d="M142.7,868.9c-1,0.2-1.9,0.3-2.9,0.3c-2.3,0-3.4-1.5-3.4-3.9v-1.1c0-2.5,1.1-3.8,3.4-3.8     c0.5,0,1.2,0,1.8,0.2v-2.9c0-0.2,0.1-0.3,0.3-0.3h0.8c0.2,0,0.3,0.1,0.3,0.3v10.9C143,868.8,143,868.9,142.7,868.9z M141.7,861.7     c-0.5-0.1-1.3-0.1-1.8-0.1c-1.5,0-2,1-2,2.6v1.1c0,1.7,0.5,2.7,2,2.7c0.5,0,1.3,0,1.8-0.1V861.7z"/>
			<path class="st2" d="M151.5,865.2h-5.2v0.2c0,1.9,0.7,2.5,2.2,2.5c0.9,0,2.1-0.1,2.8-0.2c0,0,0,0,0.1,0c0.1,0,0.2,0.1,0.2,0.2     v0.5c0,0.2-0.1,0.3-0.3,0.4c-0.9,0.2-1.7,0.3-2.8,0.3c-1.8,0-3.5-0.8-3.5-3.7v-1.4c0-2.2,1.2-3.7,3.5-3.7c2.3,0,3.4,1.4,3.4,3.7     v0.8C151.8,865.1,151.7,865.2,151.5,865.2z M150.4,864.1c0-1.8-0.7-2.5-2-2.5c-1.3,0-2.1,0.8-2.1,2.5v0.1h4.1V864.1z"/>
			<path class="st2" d="M157.9,869.1c-0.3,0-0.7,0.1-1,0.1c-1.4,0-2.1-0.4-2.1-2.1v-5.4l-1.5-0.2c-0.2,0-0.3-0.1-0.3-0.3v-0.4     c0-0.2,0.1-0.3,0.3-0.3h1.5V859c0-0.2,0.1-0.3,0.3-0.3l0.8-0.1c0,0,0,0,0,0c0.1,0,0.2,0.1,0.2,0.3v1.7h1.7c0.2,0,0.3,0.1,0.3,0.3     v0.5c0,0.2-0.1,0.3-0.3,0.3h-1.7v5.4c0,0.9,0.2,1,0.8,1h0.9c0.2,0,0.3,0.1,0.3,0.2v0.5C158.2,869,158.1,869.1,157.9,869.1z"/>
			<path class="st2" d="M166,865.2h-5.2v0.2c0,1.9,0.7,2.5,2.2,2.5c0.9,0,2.1-0.1,2.8-0.2c0,0,0,0,0.1,0c0.1,0,0.2,0.1,0.2,0.2v0.5     c0,0.2-0.1,0.3-0.3,0.4c-0.9,0.2-1.7,0.3-2.8,0.3c-1.8,0-3.5-0.8-3.5-3.7v-1.4c0-2.2,1.2-3.7,3.5-3.7c2.3,0,3.4,1.4,3.4,3.7v0.8     C166.3,865.1,166.2,865.2,166,865.2z M164.9,864.1c0-1.8-0.7-2.5-2-2.5c-1.3,0-2.1,0.8-2.1,2.5v0.1h4.1V864.1z"/>
			<path class="st2" d="M171.7,861.6c-0.7,0-1.4,0.2-2.2,0.7v6.5c0,0.2-0.1,0.3-0.3,0.3h-0.8c-0.2,0-0.3-0.1-0.3-0.3v-8     c0-0.2,0.1-0.3,0.3-0.3h0.7c0.2,0,0.3,0.1,0.3,0.3v0.3c0.8-0.5,1.5-0.7,2.2-0.7c0.2,0,0.3,0.1,0.3,0.3v0.6     C172,861.5,171.9,861.6,171.7,861.6z"/>
			<path class="st2" d="M177,861.6c-0.7,0-1.4,0.2-2.2,0.7v6.5c0,0.2-0.1,0.3-0.3,0.3h-0.8c-0.2,0-0.3-0.1-0.3-0.3v-8     c0-0.2,0.1-0.3,0.3-0.3h0.7c0.2,0,0.3,0.1,0.3,0.3v0.3c0.8-0.5,1.5-0.7,2.2-0.7c0.2,0,0.3,0.1,0.3,0.3v0.6     C177.3,861.5,177.2,861.6,177,861.6z"/>
			<path class="st2" d="M185.1,869.1h-0.8c-0.2,0-0.3-0.1-0.3-0.3v-0.3c-0.9,0.5-1.6,0.7-2.5,0.7c-1.9,0-2.7-1.2-2.7-3.2v-5.1     c0-0.2,0.1-0.3,0.3-0.3h0.7c0.2,0,0.3,0.1,0.3,0.3v5.1c0,1.6,0.5,2.1,1.7,2.1c0.7,0,1.4-0.2,2.1-0.6v-6.6c0-0.2,0.1-0.3,0.3-0.3     h0.8c0.2,0,0.3,0.1,0.3,0.3v8C185.4,869,185.3,869.1,185.1,869.1z"/>
			<path class="st2" d="M188.8,859.1H188c-0.2,0-0.3-0.1-0.3-0.3v-1.2c0-0.2,0.1-0.3,0.3-0.3h0.8c0.2,0,0.3,0.1,0.3,0.3v1.2     C189.1,859,189,859.1,188.8,859.1z M188.8,869.1H188c-0.2,0-0.3-0.1-0.3-0.3v-8c0-0.2,0.1-0.3,0.3-0.3h0.7c0.2,0,0.3,0.1,0.3,0.3     v8C189.1,869,188.9,869.1,188.8,869.1z"/>
			<path class="st2" d="M193.9,869.2c-0.6,0-1.7,0-2.5-0.2c-0.2,0-0.3-0.1-0.3-0.3v-0.5c0-0.1,0.1-0.2,0.3-0.2c0,0,0,0,0.1,0     c0.7,0.1,1.9,0.2,2.5,0.2c1,0,1.5-0.3,1.5-1.1c0-0.5-0.3-0.8-1.2-1.3l-1.6-0.9c-1-0.6-1.6-1.2-1.6-2.2c0-1.6,1.2-2.1,2.8-2.1     c0.9,0,1.7,0.1,2.4,0.2c0.2,0,0.3,0.1,0.3,0.3v0.5c0,0.2-0.1,0.3-0.3,0.3c0,0,0,0,0,0c-0.5,0-1.5-0.1-2.4-0.1     c-0.9,0-1.5,0.1-1.5,0.9c0,0.5,0.4,0.8,1.1,1.2l1.5,0.9c1.3,0.8,1.7,1.4,1.7,2.4C196.8,868.5,195.6,869.2,193.9,869.2z"/>
			<path class="st2" d="M201.2,869.2c-0.6,0-1.7,0-2.5-0.2c-0.2,0-0.3-0.1-0.3-0.3v-0.5c0-0.1,0.1-0.2,0.3-0.2c0,0,0,0,0.1,0     c0.7,0.1,1.9,0.2,2.5,0.2c1,0,1.5-0.3,1.5-1.1c0-0.5-0.3-0.8-1.2-1.3l-1.6-0.9c-1-0.6-1.6-1.2-1.6-2.2c0-1.6,1.2-2.1,2.8-2.1     c0.9,0,1.7,0.1,2.4,0.2c0.2,0,0.3,0.1,0.3,0.3v0.5c0,0.2-0.1,0.3-0.3,0.3c0,0,0,0,0,0c-0.5,0-1.5-0.1-2.4-0.1     c-0.9,0-1.5,0.1-1.5,0.9c0,0.5,0.4,0.8,1.1,1.2l1.5,0.9c1.3,0.8,1.7,1.4,1.7,2.4C204.1,868.5,202.9,869.2,201.2,869.2z"/>
			<path class="st2" d="M212.2,865.2H207v0.2c0,1.9,0.7,2.5,2.2,2.5c0.9,0,2.1-0.1,2.8-0.2c0,0,0,0,0.1,0c0.1,0,0.2,0.1,0.2,0.2v0.5     c0,0.2-0.1,0.3-0.3,0.4c-0.9,0.2-1.7,0.3-2.8,0.3c-1.8,0-3.5-0.8-3.5-3.7v-1.4c0-2.2,1.2-3.7,3.5-3.7c2.3,0,3.4,1.4,3.4,3.7v0.8     C212.5,865.1,212.4,865.2,212.2,865.2z M211.1,864.1c0-1.8-0.7-2.5-2-2.5c-1.3,0-2.1,0.8-2.1,2.5v0.1h4.1V864.1z"/>
			<path class="st2" d="M218.7,869.1c-0.3,0-0.7,0.1-1,0.1c-1.4,0-2.1-0.4-2.1-2.1v-5.4l-1.5-0.2c-0.2,0-0.3-0.1-0.3-0.3v-0.4     c0-0.2,0.1-0.3,0.3-0.3h1.5V859c0-0.2,0.1-0.3,0.3-0.3l0.8-0.1c0,0,0,0,0,0c0.1,0,0.2,0.1,0.2,0.3v1.7h1.7c0.2,0,0.3,0.1,0.3,0.3     v0.5c0,0.2-0.1,0.3-0.3,0.3h-1.7v5.4c0,0.9,0.2,1,0.8,1h0.9c0.2,0,0.3,0.1,0.3,0.2v0.5C219,869,218.9,869.1,218.7,869.1z"/>
			<path class="st2" d="M230.5,869.1h-0.7c-0.2,0-0.3-0.1-0.3-0.3v-5.1c0-1.6-0.7-2-1.7-2c-0.5,0-1.5,0.1-2.2,0.4v6.7     c0,0.2-0.1,0.3-0.3,0.3h-0.8c-0.2,0-0.3-0.1-0.3-0.3v-11.1c0-0.2,0.1-0.3,0.3-0.3h0.8c0.2,0,0.3,0.1,0.3,0.3v3.2     c0.7-0.3,1.7-0.5,2.4-0.5c1.7,0,2.8,1,2.8,3.2v5.1C230.8,869,230.7,869.1,230.5,869.1z"/>
			<path class="st2" d="M238.6,869.1h-0.7c-0.2,0-0.3-0.1-0.3-0.3v-0.3c-0.7,0.4-1.5,0.8-2.4,0.8c-1.3,0-2.5-0.6-2.5-2.5v-0.2     c0-1.7,1-2.5,3.8-2.5h1.2v-0.6c0-1.3-0.5-1.8-1.7-1.8c-1,0-1.8,0.1-2.4,0.1c0,0,0,0-0.1,0c-0.1,0-0.3,0-0.3-0.2v-0.5     c0-0.2,0.1-0.3,0.3-0.3c0.6-0.1,1.4-0.2,2.4-0.2c2.2,0,3,1.1,3,2.9v5.4C238.9,869,238.8,869.1,238.6,869.1z M237.6,864.9h-1.2     c-1.9,0-2.4,0.4-2.4,1.5v0.2c0,1.1,0.5,1.4,1.4,1.4c0.7,0,1.4-0.2,2.1-0.6V864.9z"/>
			<path class="st2" d="M243.6,869.2c-0.6,0-1.7,0-2.5-0.2c-0.2,0-0.3-0.1-0.3-0.3v-0.5c0-0.1,0.1-0.2,0.3-0.2c0,0,0,0,0.1,0     c0.7,0.1,1.9,0.2,2.5,0.2c1,0,1.5-0.3,1.5-1.1c0-0.5-0.3-0.8-1.2-1.3l-1.6-0.9c-1-0.6-1.6-1.2-1.6-2.2c0-1.6,1.2-2.1,2.8-2.1     c0.9,0,1.7,0.1,2.4,0.2c0.2,0,0.3,0.1,0.3,0.3v0.5c0,0.2-0.1,0.3-0.3,0.3c0,0,0,0,0,0c-0.5,0-1.5-0.1-2.4-0.1     c-0.9,0-1.5,0.1-1.5,0.9c0,0.5,0.4,0.8,1.1,1.2l1.5,0.9c1.3,0.8,1.7,1.4,1.7,2.4C246.5,868.5,245.3,869.2,243.6,869.2z"/>
			<path class="st2" d="M257.9,869.1h-0.7c-0.2,0-0.3-0.1-0.3-0.3v-0.3c-0.7,0.4-1.5,0.8-2.4,0.8c-1.3,0-2.5-0.6-2.5-2.5v-0.2     c0-1.7,1-2.5,3.8-2.5h1.2v-0.6c0-1.3-0.5-1.8-1.7-1.8c-1,0-1.8,0.1-2.4,0.1c0,0,0,0-0.1,0c-0.1,0-0.3,0-0.3-0.2v-0.5     c0-0.2,0.1-0.3,0.3-0.3c0.6-0.1,1.4-0.2,2.4-0.2c2.2,0,3,1.1,3,2.9v5.4C258.2,869,258,869.1,257.9,869.1z M256.8,864.9h-1.2     c-1.9,0-2.4,0.4-2.4,1.5v0.2c0,1.1,0.5,1.4,1.4,1.4c0.7,0,1.4-0.2,2.1-0.6V864.9z"/>
			<path class="st2" d="M266.3,868.9c-1,0.2-1.9,0.3-2.9,0.3c-2.3,0-3.4-1.5-3.4-3.9v-1.1c0-2.5,1.1-3.8,3.4-3.8     c0.5,0,1.2,0,1.8,0.2v-2.9c0-0.2,0.1-0.3,0.3-0.3h0.8c0.2,0,0.3,0.1,0.3,0.3v10.9C266.6,868.8,266.6,868.9,266.3,868.9z      M265.2,861.7c-0.5-0.1-1.3-0.1-1.8-0.1c-1.5,0-2,1-2,2.6v1.1c0,1.7,0.5,2.7,2,2.7c0.5,0,1.3,0,1.8-0.1V861.7z"/>
			<path class="st2" d="M270.3,867.4l-1.2,3c-0.1,0.2-0.1,0.3-0.3,0.3h-0.6c-0.1,0-0.2-0.1-0.2-0.2c0,0,0-0.1,0-0.1l0.9-3     c0.1-0.2,0.1-0.3,0.3-0.3h0.9c0.1,0,0.2,0.1,0.2,0.2C270.3,867.3,270.3,867.3,270.3,867.4z"/>
			<path class="st2" d="M281.6,869.1h-0.7c-0.2,0-0.3-0.1-0.3-0.3v-0.3c-0.7,0.4-1.5,0.8-2.4,0.8c-1.3,0-2.5-0.6-2.5-2.5v-0.2     c0-1.7,1-2.5,3.8-2.5h1.2v-0.6c0-1.3-0.5-1.8-1.7-1.8c-1,0-1.8,0.1-2.4,0.1c0,0,0,0-0.1,0c-0.1,0-0.3,0-0.3-0.2v-0.5     c0-0.2,0.1-0.3,0.3-0.3c0.6-0.1,1.4-0.2,2.4-0.2c2.2,0,3,1.1,3,2.9v5.4C281.9,869,281.8,869.1,281.6,869.1z M280.5,864.9h-1.2     c-1.9,0-2.4,0.4-2.4,1.5v0.2c0,1.1,0.5,1.4,1.4,1.4c0.7,0,1.4-0.2,2.1-0.6V864.9z"/>
			<path class="st2" d="M290,868.9c-1,0.2-1.9,0.3-2.9,0.3c-2.3,0-3.4-1.5-3.4-3.9v-1.1c0-2.5,1.1-3.8,3.4-3.8c0.5,0,1.2,0,1.8,0.2     v-2.9c0-0.2,0.1-0.3,0.3-0.3h0.8c0.2,0,0.3,0.1,0.3,0.3v10.9C290.3,868.8,290.3,868.9,290,868.9z M289,861.7     c-0.5-0.1-1.3-0.1-1.8-0.1c-1.5,0-2,1-2,2.6v1.1c0,1.7,0.5,2.7,2,2.7c0.5,0,1.3,0,1.8-0.1V861.7z"/>
			<path class="st2" d="M298.7,869.1H298c-0.2,0-0.3-0.1-0.3-0.3v-5.1c0-1.6-0.7-2-1.7-2c-0.5,0-1.5,0.1-2.2,0.4v6.7     c0,0.2-0.1,0.3-0.3,0.3h-0.8c-0.2,0-0.3-0.1-0.3-0.3v-11.1c0-0.2,0.1-0.3,0.3-0.3h0.8c0.2,0,0.3,0.1,0.3,0.3v3.2     c0.7-0.3,1.7-0.5,2.4-0.5c1.7,0,2.8,1,2.8,3.2v5.1C299,869,298.9,869.1,298.7,869.1z"/>
			<path class="st2" d="M307.4,869.1h-0.8c-0.2,0-0.3-0.1-0.3-0.3v-0.3c-0.9,0.5-1.6,0.7-2.5,0.7c-1.9,0-2.7-1.2-2.7-3.2v-5.1     c0-0.2,0.1-0.3,0.3-0.3h0.7c0.2,0,0.3,0.1,0.3,0.3v5.1c0,1.6,0.5,2.1,1.7,2.1c0.7,0,1.4-0.2,2.1-0.6v-6.6c0-0.2,0.1-0.3,0.3-0.3     h0.8c0.2,0,0.3,0.1,0.3,0.3v8C307.7,869,307.6,869.1,307.4,869.1z"/>
			<path class="st2" d="M314.8,869c-0.5,0.1-1.2,0.2-2,0.2c-2.1,0-3.3-1.5-3.3-3.8v-1.2c0-2.3,1.2-3.8,3.3-3.8c0.7,0,1.4,0.1,2,0.2     c0.2,0,0.3,0.1,0.3,0.3v0.6c0,0.2-0.1,0.2-0.3,0.2c0,0,0,0-0.1,0c-0.7-0.1-1.2-0.1-1.9-0.1c-1.2,0-2,0.8-2,2.6v1.2     c0,1.7,0.7,2.6,2,2.6c0.8,0,1.2,0,1.9-0.1c0,0,0,0,0.1,0c0.1,0,0.3,0.1,0.3,0.2v0.6C315.2,868.9,315.1,869,314.8,869z"/>
			<path class="st2" d="M322,859.1h-0.8c-0.2,0-0.3-0.1-0.3-0.3v-1.2c0-0.2,0.1-0.3,0.3-0.3h0.8c0.2,0,0.3,0.1,0.3,0.3v1.2     C322.3,859,322.2,859.1,322,859.1z M322,869.1h-0.8c-0.2,0-0.3-0.1-0.3-0.3v-8c0-0.2,0.1-0.3,0.3-0.3h0.8c0.2,0,0.3,0.1,0.3,0.3     v8C322.3,869,322.2,869.1,322,869.1z"/>
			<path class="st2" d="M330.9,869.1h-0.8c-0.2,0-0.3-0.1-0.3-0.3v-5.1c0-1.6-0.5-2.1-1.7-2.1c-0.7,0-1.4,0.2-2.1,0.6v6.6     c0,0.2-0.1,0.3-0.3,0.3h-0.8c-0.2,0-0.3-0.1-0.3-0.3v-8c0-0.2,0.1-0.3,0.3-0.3h0.8c0.2,0,0.3,0.1,0.3,0.3v0.3     c0.9-0.5,1.6-0.7,2.5-0.7c1.9,0,2.7,1.2,2.7,3.2v5.1C331.2,869,331,869.1,330.9,869.1z"/>
			<path class="st2" d="M335.8,869.2c-0.6,0-1.7,0-2.5-0.2c-0.2,0-0.3-0.1-0.3-0.3v-0.5c0-0.1,0.1-0.2,0.3-0.2c0,0,0,0,0.1,0     c0.7,0.1,1.9,0.2,2.5,0.2c1,0,1.5-0.3,1.5-1.1c0-0.5-0.3-0.8-1.2-1.3l-1.6-0.9c-1-0.6-1.6-1.2-1.6-2.2c0-1.6,1.2-2.1,2.8-2.1     c0.9,0,1.7,0.1,2.4,0.2c0.2,0,0.3,0.1,0.3,0.3v0.5c0,0.2-0.1,0.3-0.3,0.3c0,0,0,0,0,0c-0.5,0-1.5-0.1-2.4-0.1     c-0.9,0-1.5,0.1-1.5,0.9c0,0.5,0.4,0.8,1.1,1.2l1.5,0.9c1.3,0.8,1.7,1.4,1.7,2.4C338.7,868.5,337.6,869.2,335.8,869.2z"/>
			<path class="st2" d="M343.8,869.2c-2.3,0-3.5-1.5-3.5-3.8v-1.2c0-2.3,1.2-3.8,3.5-3.8c2.3,0,3.5,1.5,3.5,3.8v1.2     C347.2,867.7,346.1,869.2,343.8,869.2z M345.9,864.2c0-1.6-0.6-2.6-2.1-2.6c-1.5,0-2.1,1-2.1,2.6v1.2c0,1.6,0.6,2.6,2.1,2.6     c1.5,0,2.1-1,2.1-2.6V864.2z"/>
			<path class="st2" d="M350.3,869.1h-0.8c-0.2,0-0.3-0.1-0.3-0.3v-11.1c0-0.2,0.1-0.3,0.3-0.3h0.8c0.2,0,0.3,0.1,0.3,0.3v11.1     C350.6,868.9,350.5,869.1,350.3,869.1z"/>
			<path class="st2" d="M359.2,865.2H354v0.2c0,1.9,0.7,2.5,2.2,2.5c0.9,0,2.1-0.1,2.8-0.2c0,0,0,0,0.1,0c0.1,0,0.2,0.1,0.2,0.2v0.5     c0,0.2-0.1,0.3-0.3,0.4c-0.9,0.2-1.7,0.3-2.8,0.3c-1.8,0-3.5-0.8-3.5-3.7v-1.4c0-2.2,1.2-3.7,3.5-3.7c2.3,0,3.4,1.4,3.4,3.7v0.8     C359.5,865.1,359.4,865.2,359.2,865.2z M358.1,864.1c0-1.8-0.7-2.5-2-2.5c-1.3,0-2.1,0.8-2.1,2.5v0.1h4.1V864.1z"/>
			<path class="st2" d="M367.6,869.1h-0.8c-0.2,0-0.3-0.1-0.3-0.3v-5.1c0-1.6-0.5-2.1-1.7-2.1c-0.7,0-1.4,0.2-2.1,0.6v6.6     c0,0.2-0.1,0.3-0.3,0.3h-0.8c-0.2,0-0.3-0.1-0.3-0.3v-8c0-0.2,0.1-0.3,0.3-0.3h0.8c0.2,0,0.3,0.1,0.3,0.3v0.3     c0.9-0.5,1.6-0.7,2.5-0.7c1.9,0,2.7,1.2,2.7,3.2v5.1C367.9,869,367.8,869.1,367.6,869.1z"/>
			<path class="st2" d="M372.6,869.2c-0.6,0-1.7,0-2.5-0.2c-0.2,0-0.3-0.1-0.3-0.3v-0.5c0-0.1,0.1-0.2,0.3-0.2c0,0,0,0,0.1,0     c0.7,0.1,1.9,0.2,2.5,0.2c1,0,1.5-0.3,1.5-1.1c0-0.5-0.3-0.8-1.2-1.3l-1.6-0.9c-1-0.6-1.6-1.2-1.6-2.2c0-1.6,1.2-2.1,2.8-2.1     c0.9,0,1.7,0.1,2.4,0.2c0.2,0,0.3,0.1,0.3,0.3v0.5c0,0.2-0.1,0.3-0.3,0.3c0,0,0,0,0,0c-0.5,0-1.5-0.1-2.4-0.1     c-0.9,0-1.5,0.1-1.5,0.9c0,0.5,0.4,0.8,1.1,1.2l1.5,0.9c1.3,0.8,1.7,1.4,1.7,2.4C375.5,868.5,374.3,869.2,372.6,869.2z"/>
			<path class="st2" d="M382.4,869.1h-0.8c-0.2,0-0.3-0.1-0.3-0.3v-11.1c0-0.2,0.1-0.3,0.3-0.3h0.8c0.2,0,0.3,0.1,0.3,0.3v11.1     C382.7,868.9,382.6,869.1,382.4,869.1z"/>
			<path class="st2" d="M390.7,869.1H390c-0.2,0-0.3-0.1-0.3-0.3v-0.3c-0.7,0.4-1.5,0.8-2.4,0.8c-1.3,0-2.5-0.6-2.5-2.5v-0.2     c0-1.7,1-2.5,3.8-2.5h1.2v-0.6c0-1.3-0.5-1.8-1.7-1.8c-1,0-1.8,0.1-2.4,0.1c0,0,0,0-0.1,0c-0.1,0-0.3,0-0.3-0.2v-0.5     c0-0.2,0.1-0.3,0.3-0.3c0.6-0.1,1.4-0.2,2.4-0.2c2.2,0,3,1.1,3,2.9v5.4C391,869,390.8,869.1,390.7,869.1z M389.6,864.9h-1.2     c-1.9,0-2.4,0.4-2.4,1.5v0.2c0,1.1,0.5,1.4,1.4,1.4c0.7,0,1.4-0.2,2.1-0.6V864.9z"/>
			<path class="st2" d="M396.3,869.2c-0.9,0-1.9-0.1-2.9-0.3c-0.3,0-0.3-0.1-0.3-0.4v-10.9c0-0.2,0.1-0.3,0.3-0.3h0.8     c0.2,0,0.3,0.1,0.3,0.3v2.9c0.6-0.1,1.3-0.2,1.8-0.2c2.3,0,3.4,1.4,3.4,3.8v1.1C399.7,867.7,398.6,869.2,396.3,869.2z      M398.3,864.2c0-1.7-0.5-2.6-2-2.6c-0.5,0-1.3,0-1.8,0.1v6.2c0.5,0,1.3,0.1,1.8,0.1c1.5,0,2-1,2-2.7V864.2z"/>
			<path class="st2" d="M404.7,869.2c-2.3,0-3.5-1.5-3.5-3.8v-1.2c0-2.3,1.2-3.8,3.5-3.8c2.3,0,3.5,1.5,3.5,3.8v1.2     C408.2,867.7,407,869.2,404.7,869.2z M406.8,864.2c0-1.6-0.6-2.6-2.1-2.6c-1.5,0-2.1,1-2.1,2.6v1.2c0,1.6,0.6,2.6,2.1,2.6     c1.5,0,2.1-1,2.1-2.6V864.2z"/>
			<path class="st2" d="M413.6,861.6c-0.7,0-1.4,0.2-2.2,0.7v6.5c0,0.2-0.1,0.3-0.3,0.3h-0.8c-0.2,0-0.3-0.1-0.3-0.3v-8     c0-0.2,0.1-0.3,0.3-0.3h0.7c0.2,0,0.3,0.1,0.3,0.3v0.3c0.8-0.5,1.5-0.7,2.2-0.7c0.2,0,0.3,0.1,0.3,0.3v0.6     C413.9,861.5,413.8,861.6,413.6,861.6z"/>
			<path class="st2" d="M421.1,869.1h-0.7c-0.2,0-0.3-0.1-0.3-0.3v-0.3c-0.7,0.4-1.5,0.8-2.4,0.8c-1.3,0-2.5-0.6-2.5-2.5v-0.2     c0-1.7,1-2.5,3.8-2.5h1.2v-0.6c0-1.3-0.5-1.8-1.7-1.8c-1,0-1.8,0.1-2.4,0.1c0,0,0,0-0.1,0c-0.1,0-0.3,0-0.3-0.2v-0.5     c0-0.2,0.1-0.3,0.3-0.3c0.6-0.1,1.4-0.2,2.4-0.2c2.2,0,3,1.1,3,2.9v5.4C421.4,869,421.2,869.1,421.1,869.1z M420,864.9h-1.2     c-1.9,0-2.4,0.4-2.4,1.5v0.2c0,1.1,0.5,1.4,1.4,1.4c0.7,0,1.4-0.2,2.1-0.6V864.9z"/>
			<path class="st2" d="M433.5,869.1h-0.7c-0.2,0-0.3-0.1-0.3-0.3v-5.5c0-1.3-0.6-1.7-1.4-1.7c-0.6,0-1.2,0.2-1.8,0.4     c0.1,0.3,0.1,0.7,0.1,1.2v5.6c0,0.2-0.1,0.3-0.3,0.3h-0.8c-0.2,0-0.3-0.1-0.3-0.3v-5.6c0-1.4-0.4-1.6-1.2-1.6     c-0.6,0-1.2,0.3-1.9,0.6v6.6c0,0.2-0.1,0.3-0.3,0.3h-0.8c-0.2,0-0.3-0.1-0.3-0.3v-8c0-0.2,0.1-0.3,0.3-0.3h0.8     c0.2,0,0.3,0.1,0.3,0.3v0.3c0.6-0.4,1.4-0.7,2.3-0.7c0.7,0,1.2,0.2,1.6,0.6c0.9-0.4,1.8-0.6,2.6-0.6c1.4,0,2.5,0.7,2.5,2.9v5.5     C433.8,869,433.7,869.1,433.5,869.1z"/>
			<path class="st2" d="M84.4,887.8h-0.8c-0.2,0-0.3-0.1-0.3-0.3v-0.3c-0.9,0.5-1.6,0.7-2.5,0.7c-1.9,0-2.7-1.2-2.7-3.2v-5.1     c0-0.2,0.1-0.3,0.3-0.3h0.7c0.2,0,0.3,0.1,0.3,0.3v5.1c0,1.6,0.5,2.1,1.7,2.1c0.7,0,1.4-0.2,2.1-0.6v-6.6c0-0.2,0.1-0.3,0.3-0.3     h0.8c0.2,0,0.3,0.1,0.3,0.3v8C84.7,887.7,84.5,887.8,84.4,887.8z"/>
			<path class="st2" d="M89.3,887.9c-0.6,0-1.7,0-2.5-0.2c-0.2,0-0.3-0.1-0.3-0.3v-0.5c0-0.1,0.1-0.2,0.3-0.2c0,0,0,0,0.1,0     c0.7,0.1,1.9,0.2,2.5,0.2c1,0,1.5-0.3,1.5-1.1c0-0.5-0.3-0.8-1.2-1.3l-1.6-0.9c-1-0.6-1.6-1.2-1.6-2.2c0-1.6,1.2-2.1,2.8-2.1     c0.9,0,1.7,0.1,2.4,0.2c0.2,0,0.3,0.1,0.3,0.3v0.5c0,0.2-0.1,0.3-0.3,0.3c0,0,0,0,0,0c-0.5,0-1.5-0.1-2.4-0.1     c-0.9,0-1.5,0.1-1.5,0.9c0,0.5,0.4,0.8,1.1,1.2l1.5,0.9c1.3,0.8,1.7,1.4,1.7,2.4C92.2,887.3,91.1,887.9,89.3,887.9z"/>
			<path class="st2" d="M104.5,879.6l-2.1,7.4c-0.2,0.7-0.7,0.9-1.4,0.9c-0.7,0-1.2-0.2-1.4-0.9l-2.1-7.4c0,0,0-0.1,0-0.1     c0-0.2,0.1-0.3,0.2-0.3h0.9c0.1,0,0.2,0.1,0.3,0.3l1.8,6.8c0.1,0.4,0.2,0.5,0.3,0.5c0.1,0,0.2-0.1,0.3-0.5l1.8-6.8     c0.1-0.2,0.2-0.3,0.3-0.3h0.9c0.2,0,0.2,0.1,0.2,0.3C104.5,879.5,104.5,879.6,104.5,879.6z"/>
			<path class="st2" d="M112.5,884h-5.2v0.2c0,1.9,0.7,2.5,2.2,2.5c0.9,0,2.1-0.1,2.8-0.2c0,0,0,0,0.1,0c0.1,0,0.2,0.1,0.2,0.2v0.5     c0,0.2-0.1,0.3-0.3,0.4c-0.9,0.2-1.7,0.3-2.8,0.3c-1.8,0-3.5-0.8-3.5-3.7v-1.4c0-2.2,1.2-3.7,3.5-3.7c2.3,0,3.4,1.4,3.4,3.7v0.8     C112.8,883.8,112.7,884,112.5,884z M111.4,882.8c0-1.8-0.7-2.5-2-2.5c-1.3,0-2.1,0.8-2.1,2.5v0.1h4.1V882.8z"/>
			<path class="st2" d="M115.9,887.8h-0.8c-0.2,0-0.3-0.1-0.3-0.3v-11.1c0-0.2,0.1-0.3,0.3-0.3h0.8c0.2,0,0.3,0.1,0.3,0.3v11.1     C116.2,887.7,116.1,887.8,115.9,887.8z"/>
			<path class="st2" d="M128.7,884h-5.2v0.2c0,1.9,0.7,2.5,2.2,2.5c0.9,0,2.1-0.1,2.8-0.2c0,0,0,0,0.1,0c0.1,0,0.2,0.1,0.2,0.2v0.5     c0,0.2-0.1,0.3-0.3,0.4c-0.9,0.2-1.7,0.3-2.8,0.3c-1.8,0-3.5-0.8-3.5-3.7v-1.4c0-2.2,1.2-3.7,3.5-3.7c2.3,0,3.4,1.4,3.4,3.7v0.8     C129,883.8,128.8,884,128.7,884z M127.6,882.8c0-1.8-0.7-2.5-2-2.5c-1.3,0-2.1,0.8-2.1,2.5v0.1h4.1V882.8z"/>
			<path class="st2" d="M137.1,887.8h-0.8c-0.2,0-0.3-0.1-0.3-0.3v-0.3c-0.9,0.5-1.6,0.7-2.5,0.7c-1.9,0-2.7-1.2-2.7-3.2v-5.1     c0-0.2,0.1-0.3,0.3-0.3h0.7c0.2,0,0.3,0.1,0.3,0.3v5.1c0,1.6,0.5,2.1,1.7,2.1c0.7,0,1.4-0.2,2.1-0.6v-6.6c0-0.2,0.1-0.3,0.3-0.3     h0.8c0.2,0,0.3,0.1,0.3,0.3v8C137.4,887.7,137.3,887.8,137.1,887.8z"/>
			<path class="st2" d="M140.5,887.8h-0.7c-0.2,0-0.3-0.1-0.3-0.3V886c0-0.2,0.1-0.3,0.3-0.3h0.7c0.2,0,0.3,0.1,0.3,0.3v1.5     C140.8,887.7,140.7,887.8,140.5,887.8z"/>
			<path class="st2" d="M155.1,876.6l-2.9,10.2c-0.3,1-1,1.2-1.6,1.2c-0.6,0-1.3-0.2-1.6-1.2l-2.9-10.2c0,0,0-0.1,0-0.1     c0-0.2,0.1-0.3,0.3-0.3h0.9c0.1,0,0.2,0.1,0.3,0.2l2.7,9.9c0.1,0.2,0.1,0.3,0.3,0.3c0.2,0,0.2-0.1,0.3-0.3l2.7-9.9     c0-0.1,0.1-0.2,0.3-0.2h0.9C155,876.2,155.2,876.3,155.1,876.6C155.2,876.5,155.2,876.6,155.1,876.6z"/>
			<path class="st2" d="M163.1,884h-5.2v0.2c0,1.9,0.7,2.5,2.2,2.5c0.9,0,2.1-0.1,2.8-0.2c0,0,0,0,0.1,0c0.1,0,0.2,0.1,0.2,0.2v0.5     c0,0.2-0.1,0.3-0.3,0.4c-0.9,0.2-1.7,0.3-2.8,0.3c-1.8,0-3.5-0.8-3.5-3.7v-1.4c0-2.2,1.2-3.7,3.5-3.7c2.3,0,3.4,1.4,3.4,3.7v0.8     C163.4,883.8,163.3,884,163.1,884z M162,882.8c0-1.8-0.7-2.5-2-2.5c-1.3,0-2.1,0.8-2.1,2.5v0.1h4.1V882.8z"/>
			<path class="st2" d="M168.8,880.3c-0.7,0-1.4,0.2-2.2,0.7v6.5c0,0.2-0.1,0.3-0.3,0.3h-0.8c-0.2,0-0.3-0.1-0.3-0.3v-8     c0-0.2,0.1-0.3,0.3-0.3h0.7c0.2,0,0.3,0.1,0.3,0.3v0.3c0.8-0.5,1.5-0.7,2.2-0.7c0.2,0,0.3,0.1,0.3,0.3v0.6     C169.1,880.2,169,880.3,168.8,880.3z"/>
			<path class="st2" d="M171.8,877.9H171c-0.2,0-0.3-0.1-0.3-0.3v-1.2c0-0.2,0.1-0.3,0.3-0.3h0.8c0.2,0,0.3,0.1,0.3,0.3v1.2     C172.1,877.7,172,877.9,171.8,877.9z M171.8,887.8h-0.7c-0.2,0-0.3-0.1-0.3-0.3v-8c0-0.2,0.1-0.3,0.3-0.3h0.7     c0.2,0,0.3,0.1,0.3,0.3v8C172.1,887.7,172,887.8,171.8,887.8z"/>
			<path class="st2" d="M181.5,887.9c-0.5,0-1.2-0.1-1.8-0.2v2.8c0,0.2-0.1,0.3-0.3,0.3h-0.8c-0.2,0-0.3-0.1-0.3-0.3v-10.7     c0-0.2,0-0.3,0.3-0.4c0.8-0.2,1.9-0.4,2.9-0.4c2.3,0,3.4,1.5,3.4,3.9v1.1C184.9,886.6,183.8,887.9,181.5,887.9z M183.5,883     c0-1.6-0.5-2.7-2-2.7c-0.7,0-1.4,0.1-1.8,0.2v6.2c0.5,0.1,1.3,0.2,1.8,0.2c1.5,0,2-1,2-2.7V883z"/>
			<path class="st2" d="M193,887.8h-0.7c-0.2,0-0.3-0.1-0.3-0.3v-5.1c0-1.6-0.7-2-1.7-2c-0.5,0-1.5,0.1-2.2,0.4v6.7     c0,0.2-0.1,0.3-0.3,0.3H187c-0.2,0-0.3-0.1-0.3-0.3v-11.1c0-0.2,0.1-0.3,0.3-0.3h0.8c0.2,0,0.3,0.1,0.3,0.3v3.2     c0.7-0.3,1.7-0.5,2.4-0.5c1.7,0,2.8,1,2.8,3.2v5.1C193.3,887.7,193.2,887.8,193,887.8z"/>
			<path class="st2" d="M201.1,887.8h-0.7c-0.2,0-0.3-0.1-0.3-0.3v-0.3c-0.7,0.4-1.5,0.8-2.4,0.8c-1.3,0-2.5-0.6-2.5-2.5v-0.2     c0-1.7,1-2.5,3.8-2.5h1.2v-0.6c0-1.3-0.5-1.8-1.7-1.8c-1,0-1.8,0.1-2.4,0.1c0,0,0,0-0.1,0c-0.1,0-0.3,0-0.3-0.2v-0.5     c0-0.2,0.1-0.3,0.3-0.3c0.6-0.1,1.4-0.2,2.4-0.2c2.2,0,3,1.1,3,2.9v5.4C201.4,887.7,201.3,887.8,201.1,887.8z M200,883.7h-1.2     c-1.9,0-2.4,0.4-2.4,1.5v0.2c0,1.1,0.5,1.4,1.4,1.4c0.7,0,1.4-0.2,2.1-0.6V883.7z"/>
			<path class="st2" d="M209.8,884h-5.2v0.2c0,1.9,0.7,2.5,2.2,2.5c0.9,0,2.1-0.1,2.8-0.2c0,0,0,0,0.1,0c0.1,0,0.2,0.1,0.2,0.2v0.5     c0,0.2-0.1,0.3-0.3,0.4c-0.9,0.2-1.7,0.3-2.8,0.3c-1.8,0-3.5-0.8-3.5-3.7v-1.4c0-2.2,1.2-3.7,3.5-3.7c2.3,0,3.4,1.4,3.4,3.7v0.8     C210.1,883.8,210,884,209.8,884z M208.7,882.8c0-1.8-0.7-2.5-2-2.5c-1.3,0-2.1,0.8-2.1,2.5v0.1h4.1V882.8z"/>
			<path class="st2" d="M218,887.7c-1,0.2-1.9,0.3-2.9,0.3c-2.3,0-3.4-1.5-3.4-3.9V883c0-2.5,1.1-3.8,3.4-3.8c0.5,0,1.2,0,1.8,0.2     v-2.9c0-0.2,0.1-0.3,0.3-0.3h0.8c0.2,0,0.3,0.1,0.3,0.3v10.9C218.3,887.5,218.3,887.6,218,887.7z M217,880.4     c-0.5-0.1-1.3-0.1-1.8-0.1c-1.5,0-2,1-2,2.6v1.1c0,1.7,0.5,2.7,2,2.7c0.5,0,1.3,0,1.8-0.1V880.4z"/>
			<path class="st2" d="M224,880.3c-0.7,0-1.4,0.2-2.2,0.7v6.5c0,0.2-0.1,0.3-0.3,0.3h-0.8c-0.2,0-0.3-0.1-0.3-0.3v-8     c0-0.2,0.1-0.3,0.3-0.3h0.7c0.2,0,0.3,0.1,0.3,0.3v0.3c0.8-0.5,1.5-0.7,2.2-0.7c0.2,0,0.3,0.1,0.3,0.3v0.6     C224.3,880.2,224.2,880.3,224,880.3z"/>
			<path class="st2" d="M232.1,887.8h-0.8c-0.2,0-0.3-0.1-0.3-0.3v-0.3c-0.9,0.5-1.6,0.7-2.5,0.7c-1.9,0-2.7-1.2-2.7-3.2v-5.1     c0-0.2,0.1-0.3,0.3-0.3h0.7c0.2,0,0.3,0.1,0.3,0.3v5.1c0,1.6,0.5,2.1,1.7,2.1c0.7,0,1.4-0.2,2.1-0.6v-6.6c0-0.2,0.1-0.3,0.3-0.3     h0.8c0.2,0,0.3,0.1,0.3,0.3v8C232.4,887.7,232.2,887.8,232.1,887.8z"/>
			<path class="st2" d="M244.5,887.8h-0.7c-0.2,0-0.3-0.1-0.3-0.3V882c0-1.3-0.6-1.7-1.4-1.7c-0.6,0-1.2,0.2-1.8,0.4     c0.1,0.3,0.1,0.7,0.1,1.2v5.6c0,0.2-0.1,0.3-0.3,0.3h-0.8c-0.2,0-0.3-0.1-0.3-0.3V882c0-1.4-0.4-1.6-1.2-1.6     c-0.6,0-1.2,0.3-1.9,0.6v6.6c0,0.2-0.1,0.3-0.3,0.3h-0.8c-0.2,0-0.3-0.1-0.3-0.3v-8c0-0.2,0.1-0.3,0.3-0.3h0.8     c0.2,0,0.3,0.1,0.3,0.3v0.3c0.6-0.4,1.4-0.7,2.3-0.7c0.7,0,1.2,0.2,1.6,0.6c0.9-0.4,1.8-0.6,2.6-0.6c1.4,0,2.5,0.7,2.5,2.9v5.5     C244.8,887.7,244.7,887.8,244.5,887.8z"/>
			<path class="st2" d="M252,877.9h-0.8c-0.2,0-0.3-0.1-0.3-0.3v-1.2c0-0.2,0.1-0.3,0.3-0.3h0.8c0.2,0,0.3,0.1,0.3,0.3v1.2     C252.4,877.7,252.2,877.9,252,877.9z M252,887.8h-0.7c-0.2,0-0.3-0.1-0.3-0.3v-8c0-0.2,0.1-0.3,0.3-0.3h0.7     c0.2,0,0.3,0.1,0.3,0.3v8C252.3,887.7,252.2,887.8,252,887.8z"/>
			<path class="st2" d="M258.2,880.3c-0.7,0-1.4,0.2-2.2,0.7v6.5c0,0.2-0.1,0.3-0.3,0.3h-0.8c-0.2,0-0.3-0.1-0.3-0.3v-8     c0-0.2,0.1-0.3,0.3-0.3h0.7c0.2,0,0.3,0.1,0.3,0.3v0.3c0.8-0.5,1.5-0.7,2.2-0.7c0.2,0,0.3,0.1,0.3,0.3v0.6     C258.5,880.2,258.4,880.3,258.2,880.3z"/>
			<path class="st2" d="M265.6,887.8h-0.7c-0.2,0-0.3-0.1-0.3-0.3v-0.3c-0.7,0.4-1.5,0.8-2.4,0.8c-1.3,0-2.5-0.6-2.5-2.5v-0.2     c0-1.7,1-2.5,3.8-2.5h1.2v-0.6c0-1.3-0.5-1.8-1.7-1.8c-1,0-1.8,0.1-2.4,0.1c0,0,0,0-0.1,0c-0.1,0-0.3,0-0.3-0.2v-0.5     c0-0.2,0.1-0.3,0.3-0.3c0.6-0.1,1.4-0.2,2.4-0.2c2.2,0,3,1.1,3,2.9v5.4C266,887.7,265.8,887.8,265.6,887.8z M264.6,883.7h-1.2     c-1.9,0-2.4,0.4-2.4,1.5v0.2c0,1.1,0.5,1.4,1.4,1.4c0.7,0,1.4-0.2,2.1-0.6V883.7z"/>
			<path class="st2" d="M273.1,887.8c-0.5,0.1-1.2,0.2-2,0.2c-2.1,0-3.3-1.5-3.3-3.8v-1.2c0-2.3,1.2-3.8,3.3-3.8     c0.7,0,1.4,0.1,2,0.2c0.2,0,0.3,0.1,0.3,0.3v0.6c0,0.2-0.1,0.2-0.3,0.2c0,0,0,0-0.1,0c-0.7-0.1-1.2-0.1-1.9-0.1     c-1.2,0-2,0.8-2,2.6v1.2c0,1.7,0.7,2.6,2,2.6c0.8,0,1.2,0,1.9-0.1c0,0,0,0,0.1,0c0.1,0,0.3,0.1,0.3,0.2v0.6     C273.4,887.6,273.3,887.7,273.1,887.8z"/>
			<path class="st2" d="M281.4,887.8h-0.8c-0.2,0-0.3-0.1-0.3-0.3v-0.3c-0.9,0.5-1.6,0.7-2.5,0.7c-1.9,0-2.7-1.2-2.7-3.2v-5.1     c0-0.2,0.1-0.3,0.3-0.3h0.7c0.2,0,0.3,0.1,0.3,0.3v5.1c0,1.6,0.5,2.1,1.7,2.1c0.7,0,1.4-0.2,2.1-0.6v-6.6c0-0.2,0.1-0.3,0.3-0.3     h0.8c0.2,0,0.3,0.1,0.3,0.3v8C281.7,887.7,281.6,887.8,281.4,887.8z"/>
			<path class="st2" d="M290.1,887.8h-0.8c-0.2,0-0.3-0.1-0.3-0.3v-5.1c0-1.6-0.5-2.1-1.7-2.1c-0.7,0-1.4,0.2-2.1,0.6v6.6     c0,0.2-0.1,0.3-0.3,0.3h-0.8c-0.2,0-0.3-0.1-0.3-0.3v-8c0-0.2,0.1-0.3,0.3-0.3h0.8c0.2,0,0.3,0.1,0.3,0.3v0.3     c0.9-0.5,1.6-0.7,2.5-0.7c1.9,0,2.7,1.2,2.7,3.2v5.1C290.4,887.7,290.3,887.8,290.1,887.8z"/>
			<path class="st2" d="M298.5,887.7c-1,0.2-1.9,0.3-2.9,0.3c-2.3,0-3.4-1.5-3.4-3.9V883c0-2.5,1.1-3.8,3.4-3.8c0.5,0,1.2,0,1.8,0.2     v-2.9c0-0.2,0.1-0.3,0.3-0.3h0.8c0.2,0,0.3,0.1,0.3,0.3v10.9C298.8,887.5,298.8,887.6,298.5,887.7z M297.5,880.4     c-0.5-0.1-1.3-0.1-1.8-0.1c-1.5,0-2,1-2,2.6v1.1c0,1.7,0.5,2.7,2,2.7c0.5,0,1.3,0,1.8-0.1V880.4z"/>
			<path class="st2" d="M302.2,877.9h-0.8c-0.2,0-0.3-0.1-0.3-0.3v-1.2c0-0.2,0.1-0.3,0.3-0.3h0.8c0.2,0,0.3,0.1,0.3,0.3v1.2     C302.5,877.7,302.4,877.9,302.2,877.9z M302.2,887.8h-0.8c-0.2,0-0.3-0.1-0.3-0.3v-8c0-0.2,0.1-0.3,0.3-0.3h0.8     c0.2,0,0.3,0.1,0.3,0.3v8C302.5,887.7,302.4,887.8,302.2,887.8z"/>
			<path class="st2" d="M310.5,887.8h-0.7c-0.2,0-0.3-0.1-0.3-0.3v-0.3c-0.7,0.4-1.5,0.8-2.4,0.8c-1.3,0-2.5-0.6-2.5-2.5v-0.2     c0-1.7,1-2.5,3.8-2.5h1.2v-0.6c0-1.3-0.5-1.8-1.7-1.8c-1,0-1.8,0.1-2.4,0.1c0,0,0,0-0.1,0c-0.1,0-0.3,0-0.3-0.2v-0.5     c0-0.2,0.1-0.3,0.3-0.3c0.6-0.1,1.4-0.2,2.4-0.2c2.2,0,3,1.1,3,2.9v5.4C310.8,887.7,310.6,887.8,310.5,887.8z M309.4,883.7h-1.2     c-1.9,0-2.4,0.4-2.4,1.5v0.2c0,1.1,0.5,1.4,1.4,1.4c0.7,0,1.4-0.2,2.1-0.6V883.7z"/>
			<path class="st2" d="M320,887.9c-0.5,0-1.2-0.1-1.8-0.2v2.8c0,0.2-0.1,0.3-0.3,0.3H317c-0.2,0-0.3-0.1-0.3-0.3v-10.7     c0-0.2,0-0.3,0.3-0.4c0.8-0.2,1.9-0.4,2.9-0.4c2.3,0,3.4,1.5,3.4,3.9v1.1C323.4,886.6,322.2,887.9,320,887.9z M322,883     c0-1.6-0.5-2.7-2-2.7c-0.7,0-1.4,0.1-1.8,0.2v6.2c0.5,0.1,1.3,0.2,1.8,0.2c1.5,0,2-1,2-2.7V883z"/>
			<path class="st2" d="M331.5,884h-5.2v0.2c0,1.9,0.7,2.5,2.2,2.5c0.9,0,2.1-0.1,2.8-0.2c0,0,0,0,0.1,0c0.1,0,0.2,0.1,0.2,0.2v0.5     c0,0.2-0.1,0.3-0.3,0.4c-0.9,0.2-1.7,0.3-2.8,0.3c-1.8,0-3.5-0.8-3.5-3.7v-1.4c0-2.2,1.2-3.7,3.5-3.7c2.3,0,3.4,1.4,3.4,3.7v0.8     C331.8,883.8,331.7,884,331.5,884z M330.4,882.8c0-1.8-0.7-2.5-2-2.5c-1.3,0-2.1,0.8-2.1,2.5v0.1h4.1V882.8z"/>
			<path class="st2" d="M337.2,880.3c-0.7,0-1.4,0.2-2.2,0.7v6.5c0,0.2-0.1,0.3-0.3,0.3H334c-0.2,0-0.3-0.1-0.3-0.3v-8     c0-0.2,0.1-0.3,0.3-0.3h0.7c0.2,0,0.3,0.1,0.3,0.3v0.3c0.8-0.5,1.5-0.7,2.2-0.7c0.2,0,0.3,0.1,0.3,0.3v0.6     C337.5,880.2,337.4,880.3,337.2,880.3z"/>
			<path class="st2" d="M349.2,884H344v0.2c0,1.9,0.7,2.5,2.2,2.5c0.9,0,2.1-0.1,2.8-0.2c0,0,0,0,0.1,0c0.1,0,0.2,0.1,0.2,0.2v0.5     c0,0.2-0.1,0.3-0.3,0.4c-0.9,0.2-1.7,0.3-2.8,0.3c-1.8,0-3.5-0.8-3.5-3.7v-1.4c0-2.2,1.2-3.7,3.5-3.7c2.3,0,3.4,1.4,3.4,3.7v0.8     C349.5,883.8,349.4,884,349.2,884z M348.1,882.8c0-1.8-0.7-2.5-2-2.5c-1.3,0-2.1,0.8-2.1,2.5v0.1h4.1V882.8z"/>
			<path class="st2" d="M357.7,887.8h-0.8c-0.2,0-0.3-0.1-0.3-0.3v-0.3c-0.9,0.5-1.6,0.7-2.5,0.7c-1.9,0-2.7-1.2-2.7-3.2v-5.1     c0-0.2,0.1-0.3,0.3-0.3h0.7c0.2,0,0.3,0.1,0.3,0.3v5.1c0,1.6,0.5,2.1,1.7,2.1c0.7,0,1.4-0.2,2.1-0.6v-6.6c0-0.2,0.1-0.3,0.3-0.3     h0.8c0.2,0,0.3,0.1,0.3,0.3v8C357.9,887.7,357.8,887.8,357.7,887.8z"/>
			<path class="st2" d="M361.6,886.1l-1.2,3c-0.1,0.2-0.1,0.3-0.3,0.3h-0.6c-0.1,0-0.2-0.1-0.2-0.2c0,0,0-0.1,0-0.1l0.9-3     c0.1-0.2,0.1-0.3,0.3-0.3h0.9c0.1,0,0.2,0.1,0.2,0.2C361.6,886,361.6,886.1,361.6,886.1z"/>
			<path class="st2" d="M369.8,887.9c-0.6,0-1.7,0-2.5-0.2c-0.2,0-0.3-0.1-0.3-0.3v-0.5c0-0.1,0.1-0.2,0.3-0.2c0,0,0,0,0.1,0     c0.7,0.1,1.9,0.2,2.5,0.2c1,0,1.5-0.3,1.5-1.1c0-0.5-0.3-0.8-1.2-1.3l-1.6-0.9c-1-0.6-1.6-1.2-1.6-2.2c0-1.6,1.2-2.1,2.8-2.1     c0.9,0,1.7,0.1,2.4,0.2c0.2,0,0.3,0.1,0.3,0.3v0.5c0,0.2-0.1,0.3-0.3,0.3c0,0,0,0,0,0c-0.5,0-1.5-0.1-2.4-0.1     c-0.9,0-1.5,0.1-1.5,0.9c0,0.5,0.4,0.8,1.1,1.2l1.5,0.9c1.3,0.8,1.7,1.4,1.7,2.4C372.7,887.3,371.5,887.9,369.8,887.9z"/>
			<path class="st2" d="M375.8,877.9H375c-0.2,0-0.3-0.1-0.3-0.3v-1.2c0-0.2,0.1-0.3,0.3-0.3h0.8c0.2,0,0.3,0.1,0.3,0.3v1.2     C376.1,877.7,376,877.9,375.8,877.9z M375.8,887.8H375c-0.2,0-0.3-0.1-0.3-0.3v-8c0-0.2,0.1-0.3,0.3-0.3h0.8     c0.2,0,0.3,0.1,0.3,0.3v8C376.1,887.7,375.9,887.8,375.8,887.8z"/>
			<path class="st2" d="M382.7,887.9c-0.3,0-0.7,0.1-1,0.1c-1.4,0-2.1-0.4-2.1-2.1v-5.4l-1.5-0.2c-0.2,0-0.3-0.1-0.3-0.3v-0.4     c0-0.2,0.1-0.3,0.3-0.3h1.5v-1.5c0-0.2,0.1-0.3,0.3-0.3l0.8-0.1c0,0,0,0,0,0c0.1,0,0.2,0.1,0.2,0.3v1.7h1.7     c0.2,0,0.3,0.1,0.3,0.3v0.5c0,0.2-0.1,0.3-0.3,0.3h-1.7v5.4c0,0.9,0.2,1,0.8,1h0.9c0.2,0,0.3,0.1,0.3,0.2v0.5     C382.9,887.7,382.9,887.8,382.7,887.9z"/>
			<path class="st2" d="M394.8,879.6l-2.1,7.4c-0.2,0.7-0.7,0.9-1.4,0.9s-1.2-0.2-1.4-0.9l-2.1-7.4c0,0,0-0.1,0-0.1     c0-0.2,0.1-0.3,0.2-0.3h0.9c0.1,0,0.2,0.1,0.3,0.3l1.8,6.8c0.1,0.4,0.2,0.5,0.3,0.5c0.1,0,0.2-0.1,0.3-0.5l1.8-6.8     c0.1-0.2,0.2-0.3,0.3-0.3h0.9c0.2,0,0.2,0.1,0.2,0.3C394.9,879.5,394.9,879.6,394.8,879.6z"/>
			<path class="st2" d="M402.8,884h-5.2v0.2c0,1.9,0.7,2.5,2.2,2.5c0.9,0,2.1-0.1,2.8-0.2c0,0,0,0,0.1,0c0.1,0,0.2,0.1,0.2,0.2v0.5     c0,0.2-0.1,0.3-0.3,0.4c-0.9,0.2-1.7,0.3-2.8,0.3c-1.8,0-3.5-0.8-3.5-3.7v-1.4c0-2.2,1.2-3.7,3.5-3.7c2.3,0,3.4,1.4,3.4,3.7v0.8     C403.1,883.8,403,884,402.8,884z M401.8,882.8c0-1.8-0.7-2.5-2-2.5c-1.3,0-2.1,0.8-2.1,2.5v0.1h4.1V882.8z"/>
			<path class="st2" d="M406.3,887.8h-0.8c-0.2,0-0.3-0.1-0.3-0.3v-11.1c0-0.2,0.1-0.3,0.3-0.3h0.8c0.2,0,0.3,0.1,0.3,0.3v11.1     C406.5,887.7,406.4,887.8,406.3,887.8z"/>
			<path class="st2" d="M410.1,877.9h-0.8c-0.2,0-0.3-0.1-0.3-0.3v-1.2c0-0.2,0.1-0.3,0.3-0.3h0.8c0.2,0,0.3,0.1,0.3,0.3v1.2     C410.4,877.7,410.3,877.9,410.1,877.9z M410.1,887.8h-0.8c-0.2,0-0.3-0.1-0.3-0.3v-8c0-0.2,0.1-0.3,0.3-0.3h0.8     c0.2,0,0.3,0.1,0.3,0.3v8C410.4,887.7,410.2,887.8,410.1,887.8z"/>
			<path class="st2" d="M417,887.9c-0.3,0-0.7,0.1-1,0.1c-1.4,0-2.1-0.4-2.1-2.1v-5.4l-1.5-0.2c-0.2,0-0.3-0.1-0.3-0.3v-0.4     c0-0.2,0.1-0.3,0.3-0.3h1.5v-1.5c0-0.2,0.1-0.3,0.3-0.3l0.8-0.1c0,0,0,0,0,0c0.1,0,0.2,0.1,0.2,0.3v1.7h1.7     c0.2,0,0.3,0.1,0.3,0.3v0.5c0,0.2-0.1,0.3-0.3,0.3h-1.7v5.4c0,0.9,0.2,1,0.8,1h0.9c0.2,0,0.3,0.1,0.3,0.2v0.5     C417.2,887.7,417.2,887.8,417,887.9z"/>
			<path class="st2" d="M423.8,877.9H423c-0.2,0-0.3-0.1-0.3-0.3v-1.2c0-0.2,0.1-0.3,0.3-0.3h0.8c0.2,0,0.3,0.1,0.3,0.3v1.2     C424.1,877.7,424,877.9,423.8,877.9z M423.8,887.8H423c-0.2,0-0.3-0.1-0.3-0.3v-8c0-0.2,0.1-0.3,0.3-0.3h0.8     c0.2,0,0.3,0.1,0.3,0.3v8C424.1,887.7,423.9,887.8,423.8,887.8z"/>
			<path class="st2" d="M429.9,880.3c-0.7,0-1.4,0.2-2.2,0.7v6.5c0,0.2-0.1,0.3-0.3,0.3h-0.8c-0.2,0-0.3-0.1-0.3-0.3v-8     c0-0.2,0.1-0.3,0.3-0.3h0.7c0.2,0,0.3,0.1,0.3,0.3v0.3c0.8-0.5,1.5-0.7,2.2-0.7c0.2,0,0.3,0.1,0.3,0.3v0.6     C430.2,880.2,430.1,880.3,429.9,880.3z"/>
			<path class="st2" d="M83.8,906.5H83c-0.2,0-0.3-0.1-0.3-0.3v-0.3c-0.7,0.4-1.5,0.8-2.4,0.8c-1.3,0-2.5-0.6-2.5-2.5v-0.2     c0-1.7,1-2.5,3.8-2.5h1.2v-0.6c0-1.3-0.5-1.8-1.7-1.8c-1,0-1.8,0.1-2.4,0.1c0,0,0,0-0.1,0c-0.1,0-0.3,0-0.3-0.2v-0.5     c0-0.2,0.1-0.3,0.3-0.3c0.6-0.1,1.4-0.2,2.4-0.2c2.2,0,3,1.1,3,2.9v5.4C84.1,906.4,83.9,906.5,83.8,906.5z M82.7,902.4h-1.2     c-1.9,0-2.4,0.4-2.4,1.5v0.2c0,1.1,0.5,1.4,1.4,1.4c0.7,0,1.4-0.2,2.1-0.6V902.4z"/>
			<path class="st2" d="M91.2,906.5c-0.5,0.1-1.2,0.2-2,0.2c-2.1,0-3.3-1.5-3.3-3.8v-1.2c0-2.3,1.2-3.8,3.3-3.8c0.7,0,1.4,0.1,2,0.2     c0.2,0,0.3,0.1,0.3,0.3v0.6c0,0.2-0.1,0.2-0.3,0.2c0,0,0,0-0.1,0c-0.7-0.1-1.2-0.1-1.9-0.1c-1.2,0-2,0.8-2,2.6v1.2     c0,1.7,0.7,2.6,2,2.6c0.8,0,1.2,0,1.9-0.1c0,0,0,0,0.1,0c0.1,0,0.3,0.1,0.3,0.2v0.6C91.5,906.3,91.4,906.4,91.2,906.5z"/>
			<path class="st2" d="M99.5,906.5h-0.8c-0.2,0-0.3-0.1-0.3-0.3v-0.3c-0.9,0.5-1.6,0.7-2.5,0.7c-1.9,0-2.7-1.2-2.7-3.2v-5.1     c0-0.2,0.1-0.3,0.3-0.3h0.7c0.2,0,0.3,0.1,0.3,0.3v5.1c0,1.6,0.5,2.1,1.7,2.1c0.7,0,1.4-0.2,2.1-0.6v-6.6c0-0.2,0.1-0.3,0.3-0.3     h0.8c0.2,0,0.3,0.1,0.3,0.3v8C99.8,906.4,99.7,906.5,99.5,906.5z"/>
			<path class="st2" d="M108.2,906.5h-0.7c-0.2,0-0.3-0.1-0.3-0.3v-5.1c0-1.6-0.5-2.1-1.7-2.1c-0.7,0-1.4,0.2-2.1,0.6v6.6     c0,0.2-0.1,0.3-0.3,0.3h-0.8c-0.2,0-0.3-0.1-0.3-0.3v-8c0-0.2,0.1-0.3,0.3-0.3h0.8c0.2,0,0.3,0.1,0.3,0.3v0.3     c0.9-0.5,1.6-0.7,2.5-0.7c1.9,0,2.7,1.2,2.7,3.2v5.1C108.5,906.4,108.4,906.5,108.2,906.5z"/>
			<path class="st2" d="M116.6,906.4c-1,0.2-1.9,0.3-2.9,0.3c-2.3,0-3.4-1.5-3.4-3.9v-1.1c0-2.5,1.1-3.8,3.4-3.8     c0.5,0,1.2,0,1.8,0.2v-2.9c0-0.2,0.1-0.3,0.3-0.3h0.8c0.2,0,0.3,0.1,0.3,0.3V906C117,906.2,116.9,906.3,116.6,906.4z      M115.6,899.2c-0.5-0.1-1.3-0.1-1.8-0.1c-1.5,0-2,1-2,2.6v1.1c0,1.7,0.5,2.7,2,2.7c0.5,0,1.3,0,1.8-0.1V899.2z"/>
			<path class="st2" d="M120.3,896.6h-0.8c-0.2,0-0.3-0.1-0.3-0.3V895c0-0.2,0.1-0.3,0.3-0.3h0.8c0.2,0,0.3,0.1,0.3,0.3v1.2     C120.7,896.4,120.5,896.6,120.3,896.6z M120.3,906.5h-0.7c-0.2,0-0.3-0.1-0.3-0.3v-8c0-0.2,0.1-0.3,0.3-0.3h0.7     c0.2,0,0.3,0.1,0.3,0.3v8C120.6,906.4,120.5,906.5,120.3,906.5z"/>
			<path class="st2" d="M128.6,906.5h-0.7c-0.2,0-0.3-0.1-0.3-0.3v-0.3c-0.7,0.4-1.5,0.8-2.4,0.8c-1.3,0-2.5-0.6-2.5-2.5v-0.2     c0-1.7,1-2.5,3.8-2.5h1.2v-0.6c0-1.3-0.5-1.8-1.7-1.8c-1,0-1.8,0.1-2.4,0.1c0,0,0,0-0.1,0c-0.1,0-0.3,0-0.3-0.2v-0.5     c0-0.2,0.1-0.3,0.3-0.3c0.6-0.1,1.4-0.2,2.4-0.2c2.2,0,3,1.1,3,2.9v5.4C128.9,906.4,128.8,906.5,128.6,906.5z M127.5,902.4h-1.2     c-1.9,0-2.4,0.4-2.4,1.5v0.2c0,1.1,0.5,1.4,1.4,1.4c0.7,0,1.4-0.2,2.1-0.6V902.4z"/>
			<path class="st2" d="M141.1,906.5h-0.7c-0.2,0-0.3-0.1-0.3-0.3v-5.1c0-1.6-0.5-2.1-1.7-2.1c-0.7,0-1.4,0.2-2.1,0.6v6.6     c0,0.2-0.1,0.3-0.3,0.3h-0.8c-0.2,0-0.3-0.1-0.3-0.3v-8c0-0.2,0.1-0.3,0.3-0.3h0.8c0.2,0,0.3,0.1,0.3,0.3v0.3     c0.9-0.5,1.6-0.7,2.5-0.7c1.9,0,2.7,1.2,2.7,3.2v5.1C141.5,906.4,141.3,906.5,141.1,906.5z"/>
			<path class="st2" d="M149.9,902.7h-5.2v0.2c0,1.9,0.7,2.5,2.2,2.5c0.9,0,2.1-0.1,2.8-0.2c0,0,0,0,0.1,0c0.1,0,0.2,0.1,0.2,0.2     v0.5c0,0.2-0.1,0.3-0.3,0.4c-0.9,0.2-1.7,0.3-2.8,0.3c-1.8,0-3.5-0.8-3.5-3.7v-1.4c0-2.2,1.2-3.7,3.5-3.7c2.3,0,3.4,1.4,3.4,3.7     v0.8C150.2,902.6,150.1,902.7,149.9,902.7z M148.8,901.5c0-1.8-0.7-2.5-2-2.5c-1.3,0-2.1,0.8-2.1,2.5v0.1h4.1V901.5z"/>
			<path class="st2" d="M153.6,904.8l-1.2,3c-0.1,0.2-0.1,0.3-0.3,0.3h-0.6c-0.1,0-0.2-0.1-0.2-0.2c0,0,0-0.1,0-0.1l0.9-3     c0.1-0.2,0.1-0.3,0.3-0.3h0.9c0.1,0,0.2,0.1,0.2,0.2C153.6,904.7,153.6,904.8,153.6,904.8z"/>
			<path class="st2" d="M160.5,896.6h-0.8c-0.2,0-0.3-0.1-0.3-0.3V895c0-0.2,0.1-0.3,0.3-0.3h0.8c0.2,0,0.3,0.1,0.3,0.3v1.2     C160.8,896.4,160.7,896.6,160.5,896.6z M160.5,906.5h-0.7c-0.2,0-0.3-0.1-0.3-0.3v-8c0-0.2,0.1-0.3,0.3-0.3h0.7     c0.2,0,0.3,0.1,0.3,0.3v8C160.8,906.4,160.7,906.5,160.5,906.5z"/>
			<path class="st2" d="M164.4,906.5h-0.8c-0.2,0-0.3-0.1-0.3-0.3v-11.1c0-0.2,0.1-0.3,0.3-0.3h0.8c0.2,0,0.3,0.1,0.3,0.3v11.1     C164.6,906.4,164.5,906.5,164.4,906.5z"/>
			<path class="st2" d="M168.2,906.5h-0.8c-0.2,0-0.3-0.1-0.3-0.3v-11.1c0-0.2,0.1-0.3,0.3-0.3h0.8c0.2,0,0.3,0.1,0.3,0.3v11.1     C168.5,906.4,168.3,906.5,168.2,906.5z"/>
			<path class="st2" d="M177,906.5h-0.8c-0.2,0-0.3-0.1-0.3-0.3v-0.3c-0.9,0.5-1.6,0.7-2.5,0.7c-1.9,0-2.7-1.2-2.7-3.2v-5.1     c0-0.2,0.1-0.3,0.3-0.3h0.7c0.2,0,0.3,0.1,0.3,0.3v5.1c0,1.6,0.5,2.1,1.7,2.1c0.7,0,1.4-0.2,2.1-0.6v-6.6c0-0.2,0.1-0.3,0.3-0.3     h0.8c0.2,0,0.3,0.1,0.3,0.3v8C177.3,906.4,177.2,906.5,177,906.5z"/>
			<path class="st2" d="M189.4,906.5h-0.7c-0.2,0-0.3-0.1-0.3-0.3v-5.5c0-1.3-0.6-1.7-1.4-1.7c-0.6,0-1.2,0.2-1.8,0.4     c0.1,0.3,0.1,0.7,0.1,1.2v5.6c0,0.2-0.1,0.3-0.3,0.3h-0.8c-0.2,0-0.3-0.1-0.3-0.3v-5.6c0-1.4-0.4-1.6-1.2-1.6     c-0.6,0-1.2,0.3-1.9,0.6v6.6c0,0.2-0.1,0.3-0.3,0.3h-0.8c-0.2,0-0.3-0.1-0.3-0.3v-8c0-0.2,0.1-0.3,0.3-0.3h0.8     c0.2,0,0.3,0.1,0.3,0.3v0.3c0.6-0.4,1.4-0.7,2.3-0.7c0.7,0,1.2,0.2,1.6,0.6c0.9-0.4,1.8-0.6,2.6-0.6c1.4,0,2.5,0.7,2.5,2.9v5.5     C189.8,906.4,189.6,906.5,189.4,906.5z"/>
			<path class="st2" d="M200.7,906.5c-0.5,0.1-1.2,0.2-2,0.2c-2.1,0-3.3-1.5-3.3-3.8v-1.2c0-2.3,1.2-3.8,3.3-3.8     c0.7,0,1.4,0.1,2,0.2c0.2,0,0.3,0.1,0.3,0.3v0.6c0,0.2-0.1,0.2-0.3,0.2c0,0,0,0-0.1,0c-0.7-0.1-1.2-0.1-1.9-0.1     c-1.2,0-2,0.8-2,2.6v1.2c0,1.7,0.7,2.6,2,2.6c0.8,0,1.2,0,1.9-0.1c0,0,0,0,0.1,0c0.1,0,0.3,0.1,0.3,0.2v0.6     C201,906.3,201,906.4,200.7,906.5z"/>
			<path class="st2" d="M206,906.7c-2.3,0-3.5-1.5-3.5-3.8v-1.2c0-2.3,1.2-3.8,3.5-3.8c2.3,0,3.5,1.5,3.5,3.8v1.2     C209.4,905.1,208.3,906.7,206,906.7z M208.1,901.7c0-1.6-0.6-2.6-2.1-2.6c-1.5,0-2.1,1-2.1,2.6v1.2c0,1.6,0.6,2.6,2.1,2.6     c1.5,0,2.1-1,2.1-2.6V901.7z"/>
			<path class="st2" d="M217.5,906.5h-0.7c-0.2,0-0.3-0.1-0.3-0.3v-5.1c0-1.6-0.5-2.1-1.7-2.1c-0.7,0-1.4,0.2-2.1,0.6v6.6     c0,0.2-0.1,0.3-0.3,0.3h-0.8c-0.2,0-0.3-0.1-0.3-0.3v-8c0-0.2,0.1-0.3,0.3-0.3h0.8c0.2,0,0.3,0.1,0.3,0.3v0.3     c0.9-0.5,1.6-0.7,2.5-0.7c1.9,0,2.7,1.2,2.7,3.2v5.1C217.9,906.4,217.7,906.5,217.5,906.5z"/>
			<path class="st2" d="M226.6,898.3l-2.1,7.4c-0.2,0.7-0.7,0.9-1.4,0.9c-0.7,0-1.2-0.2-1.4-0.9l-2.1-7.4c0,0,0-0.1,0-0.1     c0-0.2,0.1-0.3,0.2-0.3h0.9c0.1,0,0.2,0.1,0.3,0.3l1.8,6.8c0.1,0.4,0.2,0.5,0.3,0.5c0.1,0,0.2-0.1,0.3-0.5l1.8-6.8     c0.1-0.2,0.2-0.3,0.3-0.3h0.9c0.2,0,0.2,0.1,0.2,0.3C226.6,898.3,226.6,898.3,226.6,898.3z"/>
			<path class="st2" d="M234.6,902.7h-5.2v0.2c0,1.9,0.7,2.5,2.2,2.5c0.9,0,2.1-0.1,2.8-0.2c0,0,0,0,0.1,0c0.1,0,0.2,0.1,0.2,0.2     v0.5c0,0.2-0.1,0.3-0.3,0.4c-0.9,0.2-1.7,0.3-2.8,0.3c-1.8,0-3.5-0.8-3.5-3.7v-1.4c0-2.2,1.2-3.7,3.5-3.7c2.3,0,3.4,1.4,3.4,3.7     v0.8C234.9,902.6,234.8,902.7,234.6,902.7z M233.5,901.5c0-1.8-0.7-2.5-2-2.5c-1.3,0-2.1,0.8-2.1,2.5v0.1h4.1V901.5z"/>
			<path class="st2" d="M243,906.5h-0.7c-0.2,0-0.3-0.1-0.3-0.3v-5.1c0-1.6-0.5-2.1-1.7-2.1c-0.7,0-1.4,0.2-2.1,0.6v6.6     c0,0.2-0.1,0.3-0.3,0.3H237c-0.2,0-0.3-0.1-0.3-0.3v-8c0-0.2,0.1-0.3,0.3-0.3h0.8c0.2,0,0.3,0.1,0.3,0.3v0.3     c0.9-0.5,1.6-0.7,2.5-0.7c1.9,0,2.7,1.2,2.7,3.2v5.1C243.3,906.4,243.2,906.5,243,906.5z"/>
			<path class="st2" d="M246.7,896.6h-0.8c-0.2,0-0.3-0.1-0.3-0.3V895c0-0.2,0.1-0.3,0.3-0.3h0.8c0.2,0,0.3,0.1,0.3,0.3v1.2     C247,896.4,246.9,896.6,246.7,896.6z M246.7,906.5h-0.7c-0.2,0-0.3-0.1-0.3-0.3v-8c0-0.2,0.1-0.3,0.3-0.3h0.7     c0.2,0,0.3,0.1,0.3,0.3v8C247,906.4,246.8,906.5,246.7,906.5z"/>
			<path class="st2" d="M252.8,899c-0.7,0-1.4,0.2-2.2,0.7v6.5c0,0.2-0.1,0.3-0.3,0.3h-0.8c-0.2,0-0.3-0.1-0.3-0.3v-8     c0-0.2,0.1-0.3,0.3-0.3h0.7c0.2,0,0.3,0.1,0.3,0.3v0.3c0.8-0.5,1.5-0.7,2.2-0.7c0.2,0,0.3,0.1,0.3,0.3v0.6     C253.1,898.9,253,899,252.8,899z"/>
			<path class="st2" d="M260.9,902.7h-5.2v0.2c0,1.9,0.7,2.5,2.2,2.5c0.9,0,2.1-0.1,2.8-0.2c0,0,0,0,0.1,0c0.1,0,0.2,0.1,0.2,0.2     v0.5c0,0.2-0.1,0.3-0.3,0.4c-0.9,0.2-1.7,0.3-2.8,0.3c-1.8,0-3.5-0.8-3.5-3.7v-1.4c0-2.2,1.2-3.7,3.5-3.7c2.3,0,3.4,1.4,3.4,3.7     v0.8C261.2,902.6,261.1,902.7,260.9,902.7z M259.9,901.5c0-1.8-0.7-2.5-2-2.5c-1.3,0-2.1,0.8-2.1,2.5v0.1h4.1V901.5z"/>
			<path class="st2" d="M273,906.4c-1,0.2-1.9,0.3-2.9,0.3c-2.3,0-3.4-1.5-3.4-3.9v-1.1c0-2.5,1.1-3.8,3.4-3.8c0.5,0,1.2,0,1.8,0.2     v-2.9c0-0.2,0.1-0.3,0.3-0.3h0.8c0.2,0,0.3,0.1,0.3,0.3V906C273.3,906.2,273.2,906.3,273,906.4z M271.9,899.2     c-0.5-0.1-1.3-0.1-1.8-0.1c-1.5,0-2,1-2,2.6v1.1c0,1.7,0.5,2.7,2,2.7c0.5,0,1.3,0,1.8-0.1V899.2z"/>
			<path class="st2" d="M281.7,902.7h-5.2v0.2c0,1.9,0.7,2.5,2.2,2.5c0.9,0,2.1-0.1,2.8-0.2c0,0,0,0,0.1,0c0.1,0,0.2,0.1,0.2,0.2     v0.5c0,0.2-0.1,0.3-0.3,0.4c-0.9,0.2-1.7,0.3-2.8,0.3c-1.8,0-3.5-0.8-3.5-3.7v-1.4c0-2.2,1.2-3.7,3.5-3.7c2.3,0,3.4,1.4,3.4,3.7     v0.8C282,902.6,281.9,902.7,281.7,902.7z M280.6,901.5c0-1.8-0.7-2.5-2-2.5c-1.3,0-2.1,0.8-2.1,2.5v0.1h4.1V901.5z"/>
			<path class="st2" d="M286.4,906.7c-0.6,0-1.7,0-2.5-0.2c-0.2,0-0.3-0.1-0.3-0.3v-0.5c0-0.1,0.1-0.2,0.3-0.2c0,0,0,0,0.1,0     c0.7,0.1,1.9,0.2,2.5,0.2c1,0,1.5-0.3,1.5-1.1c0-0.5-0.3-0.8-1.2-1.3l-1.6-0.9c-1-0.6-1.6-1.2-1.6-2.2c0-1.6,1.2-2.1,2.8-2.1     c0.9,0,1.7,0.1,2.4,0.2c0.2,0,0.3,0.1,0.3,0.3v0.5c0,0.2-0.1,0.3-0.3,0.3c0,0,0,0,0,0c-0.5,0-1.5-0.1-2.4-0.1     c-0.9,0-1.5,0.1-1.5,0.9c0,0.5,0.4,0.8,1.1,1.2l1.5,0.9c1.3,0.8,1.7,1.4,1.7,2.4C289.3,906,288.2,906.7,286.4,906.7z"/>
			<path class="st2" d="M297.5,902.7h-5.2v0.2c0,1.9,0.7,2.5,2.2,2.5c0.9,0,2.1-0.1,2.8-0.2c0,0,0,0,0.1,0c0.1,0,0.2,0.1,0.2,0.2     v0.5c0,0.2-0.1,0.3-0.3,0.4c-0.9,0.2-1.7,0.3-2.8,0.3c-1.8,0-3.5-0.8-3.5-3.7v-1.4c0-2.2,1.2-3.7,3.5-3.7c2.3,0,3.4,1.4,3.4,3.7     v0.8C297.8,902.6,297.7,902.7,297.5,902.7z M296.4,901.5c0-1.8-0.7-2.5-2-2.5c-1.3,0-2.1,0.8-2.1,2.5v0.1h4.1V901.5z"/>
			<path class="st2" d="M303.2,899c-0.7,0-1.4,0.2-2.2,0.7v6.5c0,0.2-0.1,0.3-0.3,0.3H300c-0.2,0-0.3-0.1-0.3-0.3v-8     c0-0.2,0.1-0.3,0.3-0.3h0.7c0.2,0,0.3,0.1,0.3,0.3v0.3c0.8-0.5,1.5-0.7,2.2-0.7c0.2,0,0.3,0.1,0.3,0.3v0.6     C303.5,898.9,303.4,899,303.2,899z"/>
			<path class="st2" d="M311.3,906.5h-0.8c-0.2,0-0.3-0.1-0.3-0.3v-0.3c-0.9,0.5-1.6,0.7-2.5,0.7c-1.9,0-2.7-1.2-2.7-3.2v-5.1     c0-0.2,0.1-0.3,0.3-0.3h0.7c0.2,0,0.3,0.1,0.3,0.3v5.1c0,1.6,0.5,2.1,1.7,2.1c0.7,0,1.4-0.2,2.1-0.6v-6.6c0-0.2,0.1-0.3,0.3-0.3     h0.8c0.2,0,0.3,0.1,0.3,0.3v8C311.6,906.4,311.4,906.5,311.3,906.5z"/>
			<path class="st2" d="M315,896.6h-0.8c-0.2,0-0.3-0.1-0.3-0.3V895c0-0.2,0.1-0.3,0.3-0.3h0.8c0.2,0,0.3,0.1,0.3,0.3v1.2     C315.3,896.4,315.1,896.6,315,896.6z M314.9,906.5h-0.8c-0.2,0-0.3-0.1-0.3-0.3v-8c0-0.2,0.1-0.3,0.3-0.3h0.8     c0.2,0,0.3,0.1,0.3,0.3v8C315.2,906.4,315.1,906.5,314.9,906.5z"/>
			<path class="st2" d="M320.1,906.7c-0.6,0-1.7,0-2.5-0.2c-0.2,0-0.3-0.1-0.3-0.3v-0.5c0-0.1,0.1-0.2,0.3-0.2c0,0,0,0,0.1,0     c0.7,0.1,1.9,0.2,2.5,0.2c1,0,1.5-0.3,1.5-1.1c0-0.5-0.3-0.8-1.2-1.3l-1.6-0.9c-1-0.6-1.6-1.2-1.6-2.2c0-1.6,1.2-2.1,2.8-2.1     c0.9,0,1.7,0.1,2.4,0.2c0.2,0,0.3,0.1,0.3,0.3v0.5c0,0.2-0.1,0.3-0.3,0.3c0,0,0,0,0,0c-0.5,0-1.5-0.1-2.4-0.1     c-0.9,0-1.5,0.1-1.5,0.9c0,0.5,0.4,0.8,1.1,1.2l1.5,0.9c1.3,0.8,1.7,1.4,1.7,2.4C323,906,321.8,906.7,320.1,906.7z"/>
			<path class="st2" d="M327.3,906.7c-0.6,0-1.7,0-2.5-0.2c-0.2,0-0.3-0.1-0.3-0.3v-0.5c0-0.1,0.1-0.2,0.3-0.2c0,0,0,0,0.1,0     c0.7,0.1,1.9,0.2,2.5,0.2c1,0,1.5-0.3,1.5-1.1c0-0.5-0.3-0.8-1.2-1.3l-1.6-0.9c-1-0.6-1.6-1.2-1.6-2.2c0-1.6,1.2-2.1,2.8-2.1     c0.9,0,1.7,0.1,2.4,0.2c0.2,0,0.3,0.1,0.3,0.3v0.5c0,0.2-0.1,0.3-0.3,0.3c0,0,0,0,0,0c-0.5,0-1.5-0.1-2.4-0.1     c-0.9,0-1.5,0.1-1.5,0.9c0,0.5,0.4,0.8,1.1,1.2l1.5,0.9c1.3,0.8,1.7,1.4,1.7,2.4C330.2,906,329.1,906.7,327.3,906.7z"/>
			<path class="st2" d="M338.4,902.7h-5.2v0.2c0,1.9,0.7,2.5,2.2,2.5c0.9,0,2.1-0.1,2.8-0.2c0,0,0,0,0.1,0c0.1,0,0.2,0.1,0.2,0.2     v0.5c0,0.2-0.1,0.3-0.3,0.4c-0.9,0.2-1.7,0.3-2.8,0.3c-1.8,0-3.5-0.8-3.5-3.7v-1.4c0-2.2,1.2-3.7,3.5-3.7c2.3,0,3.4,1.4,3.4,3.7     v0.8C338.7,902.6,338.6,902.7,338.4,902.7z M337.3,901.5c0-1.8-0.7-2.5-2-2.5c-1.3,0-2.1,0.8-2.1,2.5v0.1h4.1V901.5z"/>
			<path class="st2" d="M354.5,906.5h-0.7c-0.2,0-0.3-0.1-0.3-0.3v-5.5c0-1.3-0.6-1.7-1.4-1.7c-0.6,0-1.2,0.2-1.8,0.4     c0.1,0.3,0.1,0.7,0.1,1.2v5.6c0,0.2-0.1,0.3-0.3,0.3h-0.8c-0.2,0-0.3-0.1-0.3-0.3v-5.6c0-1.4-0.4-1.6-1.2-1.6     c-0.6,0-1.2,0.3-1.9,0.6v6.6c0,0.2-0.1,0.3-0.3,0.3h-0.8c-0.2,0-0.3-0.1-0.3-0.3v-8c0-0.2,0.1-0.3,0.3-0.3h0.8     c0.2,0,0.3,0.1,0.3,0.3v0.3c0.6-0.4,1.4-0.7,2.3-0.7c0.7,0,1.2,0.2,1.6,0.6c0.9-0.4,1.8-0.6,2.6-0.6c1.4,0,2.5,0.7,2.5,2.9v5.5     C354.8,906.4,354.6,906.5,354.5,906.5z"/>
			<path class="st2" d="M363.2,902.7H358v0.2c0,1.9,0.7,2.5,2.2,2.5c0.9,0,2.1-0.1,2.8-0.2c0,0,0,0,0.1,0c0.1,0,0.2,0.1,0.2,0.2v0.5     c0,0.2-0.1,0.3-0.3,0.4c-0.9,0.2-1.7,0.3-2.8,0.3c-1.8,0-3.5-0.8-3.5-3.7v-1.4c0-2.2,1.2-3.7,3.5-3.7c2.3,0,3.4,1.4,3.4,3.7v0.8     C363.5,902.6,363.4,902.7,363.2,902.7z M362.1,901.5c0-1.8-0.7-2.5-2-2.5c-1.3,0-2.1,0.8-2.1,2.5v0.1h4.1V901.5z"/>
			<path class="st2" d="M371,906.5h-0.7c-0.2,0-0.3-0.1-0.3-0.3v-0.3c-0.7,0.4-1.5,0.8-2.4,0.8c-1.3,0-2.5-0.6-2.5-2.5v-0.2     c0-1.7,1-2.5,3.8-2.5h1.2v-0.6c0-1.3-0.5-1.8-1.7-1.8c-1,0-1.8,0.1-2.4,0.1c0,0,0,0-0.1,0c-0.1,0-0.3,0-0.3-0.2v-0.5     c0-0.2,0.1-0.3,0.3-0.3c0.6-0.1,1.4-0.2,2.4-0.2c2.2,0,3,1.1,3,2.9v5.4C371.4,906.4,371.2,906.5,371,906.5z M370,902.4h-1.2     c-1.9,0-2.4,0.4-2.4,1.5v0.2c0,1.1,0.5,1.4,1.4,1.4c0.7,0,1.4-0.2,2.1-0.6V902.4z"/>
			<path class="st2" d="M383,906.5h-0.7c-0.2,0-0.3-0.1-0.3-0.3v-0.3c-0.7,0.4-1.5,0.8-2.4,0.8c-1.3,0-2.5-0.6-2.5-2.5v-0.2     c0-1.7,1-2.5,3.8-2.5h1.2v-0.6c0-1.3-0.5-1.8-1.7-1.8c-1,0-1.8,0.1-2.4,0.1c0,0,0,0-0.1,0c-0.1,0-0.3,0-0.3-0.2v-0.5     c0-0.2,0.1-0.3,0.3-0.3c0.6-0.1,1.4-0.2,2.4-0.2c2.2,0,3,1.1,3,2.9v5.4C383.3,906.4,383.2,906.5,383,906.5z M381.9,902.4h-1.2     c-1.9,0-2.4,0.4-2.4,1.5v0.2c0,1.1,0.5,1.4,1.4,1.4c0.7,0,1.4-0.2,2.1-0.6V902.4z"/>
			<path class="st2" d="M391.7,906.5h-0.8c-0.2,0-0.3-0.1-0.3-0.3v-5.1c0-1.6-0.5-2.1-1.7-2.1c-0.7,0-1.4,0.2-2.1,0.6v6.6     c0,0.2-0.1,0.3-0.3,0.3h-0.8c-0.2,0-0.3-0.1-0.3-0.3v-8c0-0.2,0.1-0.3,0.3-0.3h0.8c0.2,0,0.3,0.1,0.3,0.3v0.3     c0.9-0.5,1.6-0.7,2.5-0.7c1.9,0,2.7,1.2,2.7,3.2v5.1C392,906.4,391.9,906.5,391.7,906.5z"/>
			<path class="st2" d="M395.1,906.5h-0.7c-0.2,0-0.3-0.1-0.3-0.3v-1.5c0-0.2,0.1-0.3,0.3-0.3h0.7c0.2,0,0.3,0.1,0.3,0.3v1.5     C395.4,906.4,395.3,906.5,395.1,906.5z"/>
			<path class="st2" d="M404.2,906.7c-1.1,0-1.9-0.1-2.6-0.2c-0.3,0-0.3-0.1-0.3-0.3v-0.6c0-0.2,0.1-0.2,0.3-0.2c0,0,0,0,0,0     c0.7,0.1,1.9,0.1,2.6,0.1c1.9,0,2.4-0.7,2.4-1.8c0-0.8-0.5-1.2-1.9-2.1l-1.5-0.9c-1.4-0.9-2.2-1.7-2.2-2.9c0-1.9,1.4-2.8,3.7-2.8     c0.9,0,2.1,0.1,2.7,0.2c0.2,0,0.3,0.1,0.3,0.3v0.7c0,0.2-0.1,0.2-0.3,0.2c0,0,0,0,0,0c-0.7,0-1.8-0.1-2.7-0.1     c-1.6,0-2.3,0.3-2.3,1.5c0,0.7,0.5,1.2,1.7,1.9l1.4,0.9c1.8,1.1,2.5,1.9,2.5,3.2C408.1,905,407.3,906.7,404.2,906.7z"/>
			<path class="st2" d="M416.2,902.7H411v0.2c0,1.9,0.7,2.5,2.2,2.5c0.9,0,2.1-0.1,2.8-0.2c0,0,0,0,0.1,0c0.1,0,0.2,0.1,0.2,0.2v0.5     c0,0.2-0.1,0.3-0.3,0.4c-0.9,0.2-1.7,0.3-2.8,0.3c-1.8,0-3.5-0.8-3.5-3.7v-1.4c0-2.2,1.2-3.7,3.5-3.7c2.3,0,3.4,1.4,3.4,3.7v0.8     C416.5,902.6,416.4,902.7,416.2,902.7z M415.1,901.5c0-1.8-0.7-2.5-2-2.5c-1.3,0-2.1,0.8-2.1,2.5v0.1h4.1V901.5z"/>
			<path class="st2" d="M424,906.5h-0.7c-0.2,0-0.3-0.1-0.3-0.3v-0.3c-0.7,0.4-1.5,0.8-2.4,0.8c-1.3,0-2.5-0.6-2.5-2.5v-0.2     c0-1.7,1-2.5,3.8-2.5h1.2v-0.6c0-1.3-0.5-1.8-1.7-1.8c-1,0-1.8,0.1-2.4,0.1c0,0,0,0-0.1,0c-0.1,0-0.3,0-0.3-0.2v-0.5     c0-0.2,0.1-0.3,0.3-0.3c0.6-0.1,1.4-0.2,2.4-0.2c2.2,0,3,1.1,3,2.9v5.4C424.4,906.4,424.2,906.5,424,906.5z M423,902.4h-1.2     c-1.9,0-2.4,0.4-2.4,1.5v0.2c0,1.1,0.5,1.4,1.4,1.4c0.7,0,1.4-0.2,2.1-0.6V902.4z"/>
			<path class="st2" d="M431.6,896.6h-0.8c-0.2,0-0.3-0.1-0.3-0.3V895c0-0.2,0.1-0.3,0.3-0.3h0.8c0.2,0,0.3,0.1,0.3,0.3v1.2     C431.9,896.4,431.8,896.6,431.6,896.6z M431.6,906.5h-0.8c-0.2,0-0.3-0.1-0.3-0.3v-8c0-0.2,0.1-0.3,0.3-0.3h0.8     c0.2,0,0.3,0.1,0.3,0.3v8C431.9,906.4,431.7,906.5,431.6,906.5z"/>
			<path class="st2" d="M435.4,906.5h-0.8c-0.2,0-0.3-0.1-0.3-0.3v-11.1c0-0.2,0.1-0.3,0.3-0.3h0.8c0.2,0,0.3,0.1,0.3,0.3v11.1     C435.7,906.4,435.6,906.5,435.4,906.5z"/>
		</g>
	</g>
</g>
<g id="dashed_lines">
	<g>
		<g>
			<path class="st2" d="M681.1,743.1c-1.7-0.5-3.5-0.7-5.4-0.6l-0.1-4c2.2,0,4.4,0.2,6.5,0.8L681.1,743.1z"/>
		</g>
		<g>
			<path class="st2" d="M688.5,817.5c-0.5-1.1-1.2-2.1-2-2.9c-1.4-1.4-3.1-2.6-5.2-3.6l1.7-3.6c2.5,1.2,4.6,2.6,6.3,4.4     c1.1,1.1,2,2.4,2.7,3.9L688.5,817.5z M671.1,807.9c-0.9-0.2-1.9-0.4-2.8-0.6l-0.7-0.1c-3-0.6-5.4-1.1-7.6-1.7l1-3.9     c2.1,0.5,4.4,1.1,7.4,1.7l0.7,0.1c0.9,0.2,1.9,0.4,2.8,0.6L671.1,807.9z M649.2,801.7c-2.5-1.2-4.8-2.5-6.8-4     c-1.1-0.8-2.1-1.6-3-2.6l2.8-2.9c0.8,0.8,1.7,1.6,2.6,2.2c1.8,1.4,3.8,2.5,6.1,3.6L649.2,801.7z M632.7,785.2     c-1.1-2.7-1.6-5.5-1.6-8.2c0-1.3,0.1-2.6,0.4-3.9l3.9,0.8c-0.2,1-0.3,2.1-0.3,3.1c0,2.2,0.5,4.5,1.3,6.7L632.7,785.2z M640,764.9     l-3.1-2.5c2.5-3,5.6-5.7,8.2-8.1l2.6,3C645.1,759.6,642.3,762.1,640,764.9z M656.4,750.4l-2.3-3.2c3.5-2.6,6.8-4.5,10-5.9     l1.6,3.7C662.7,746.2,659.7,748,656.4,750.4z"/>
		</g>
		<g>
			<path class="st2" d="M687.6,833.6l-1.7-3.6c1.4-0.6,2.4-1.7,3.1-3.2l3.7,1.6C691.6,830.7,689.9,832.5,687.6,833.6z"/>
		</g>
	</g>
	<g>
		<g>
			<path class="st2" d="M1000.7,674.3c-0.7-2.3-0.8-4.6-0.5-6.8l4,0.6c-0.3,1.7-0.1,3.4,0.4,5.1L1000.7,674.3z"/>
		</g>
		<g>
			<path class="st2" d="M1113.6,758.1l-0.9,0l0-4l0.9,0c3.9,0,7.3-0.2,10.5-0.6l0.5,4C1121.2,757.9,1117.6,758.1,1113.6,758.1z      M1100.7,757.6c-3.2-0.4-7.9-1.3-11.9-3.4l1.9-3.5c3.4,1.8,7.6,2.6,10.5,3L1100.7,757.6z M1136.4,754.6l-1.4-3.7     c0.7-0.3,1.5-0.6,2.2-0.9c2.6-1.2,5.1-2.7,7.3-4.6l2.6,3c-2.5,2.1-5.3,3.9-8.2,5.2C1138,753.9,1137.2,754.3,1136.4,754.6z      M1192,751.1l-3.8-1.2c1.1-3.3,1.6-6.8,1.6-10.2c0-0.2,0-0.4,0-0.6l4-0.1c0,0.2,0,0.5,0,0.7     C1193.8,743.5,1193.2,747.4,1192,751.1z M1081.4,743.3c0-0.2,0-0.3,0-0.5c0-3.6,1.6-7.2,4.9-11.1l0.2-0.3l3,2.6l-0.2,0.2     c-2.7,3.2-3.9,6-3.9,8.5l0,0.3L1081.4,743.3z M1154.8,738.8l-3.5-1.9c1.7-3.2,2.6-6.5,2.6-9.8c0-0.2,0-0.3,0-0.5l4-0.1     c0,0.2,0,0.4,0,0.6C1157.8,731,1156.8,735,1154.8,738.8z M1187.7,728.3c-1.4-3.4-3.3-6.5-5.8-9.3l3-2.7c2.8,3.1,5,6.7,6.5,10.5     L1187.7,728.3z M1097.7,726.6l-2.3-3.3c3.1-2.2,6.5-4.2,10.4-6l1.7,3.6C1103.9,722.7,1100.7,724.5,1097.7,726.6z M1118.2,716.7     l-1.3-3.8c3.3-1.1,6.9-2.2,11.3-3.4l1,3.9C1124.9,714.6,1121.4,715.6,1118.2,716.7z M1150.7,716.6c-1.6-2.6-3.8-4.9-6.4-7     c-1.2,0.2-2.4,0.5-3.7,0.8l-0.9-3.9c4.6-1.1,8.3-1.8,11.8-2.1l0.4,4c-0.8,0.1-1.6,0.2-2.5,0.3c1.9,1.8,3.5,3.7,4.7,5.7     L1150.7,716.6z M1173.3,712.1c-2.7-1.5-5.6-2.6-8.5-3.2c-0.6-0.1-1.2-0.2-1.8-0.3l0.6-4c0.7,0.1,1.4,0.2,2,0.4     c3.3,0.7,6.6,1.9,9.6,3.7L1173.3,712.1z M1133.2,704.1c-3.3-1-6.9-1.7-11.1-2l0.4-4c4.4,0.4,8.3,1.1,11.9,2.2L1133.2,704.1z      M1075.5,702.6l0-4c3.4,0,6.9-0.1,11.7-0.2l0.1,4C1082.5,702.5,1078.9,702.6,1075.5,702.6z M1063.8,702.4     c-4.2-0.2-8.1-0.4-11.8-0.8l0.4-4c3.6,0.4,7.4,0.7,11.5,0.8L1063.8,702.4z M1099,702l-0.1-4c4.6-0.1,8.1-0.2,11.4-0.2l0.3,0l0,4     l-0.3,0C1107.1,701.8,1103.6,701.8,1099,702z M1040.2,699.8c-4-0.8-7.9-1.9-11.5-3.2l1.3-3.8c3.5,1.2,7.2,2.2,11,3.1     L1040.2,699.8z M1017.7,691.8c-1.2-0.6-2.3-1.3-3.4-2c-2.4-1.5-4.6-3.2-6.6-5l2.7-2.9c1.7,1.6,3.7,3.1,5.9,4.5     c1.1,0.6,2.2,1.3,3.3,1.9L1017.7,691.8z"/>
		</g>
		<g>
			<path class="st2" d="M1181.9,766.8l-2.7-3c1.4-1.2,2.7-2.6,3.8-4.1l3.2,2.4C1184.9,763.8,1183.4,765.4,1181.9,766.8z"/>
		</g>
	</g>
	<g>
		<g>
			<path class="st2" d="M1006.6,500.2c-0.2-0.3-0.4-0.6-0.5-0.9c-0.8-1.6-0.6-3.7,0.6-5.2c1-1.2,2.4-1.8,3.8-1.5l-0.9,3.9     c0.1,0,0.2,0,0.2,0c-0.2,0.1-0.4,0.7-0.2,1c0,0.1,0.1,0.2,0.2,0.3L1006.6,500.2z"/>
		</g>
		<g>
			<path class="st2" d="M1054.3,510.5c-4.1-0.1-8.1-0.4-12-0.7l0.4-4c3.8,0.4,7.8,0.6,11.7,0.7L1054.3,510.5z M1066.4,510.4l-0.1-4     c3.8-0.1,7.8-0.4,11.8-0.8l0.4,4C1074.3,510,1070.3,510.3,1066.4,510.4z M1090.3,508.2l-0.6-4c3.8-0.5,7.7-1.2,11.7-1.9l0.7,3.9     C1098.1,507,1094.2,507.7,1090.3,508.2z M1030.3,508.1c-4-0.7-8-1.6-11.8-2.7l1.1-3.9c3.7,1,7.6,1.9,11.4,2.6L1030.3,508.1z"/>
		</g>
		<g>
			<path class="st2" d="M1113.9,504l-0.8-3.9c1.9-0.4,3.9-0.9,5.8-1.3l0.9,3.9C1117.8,503.1,1115.9,503.5,1113.9,504z"/>
		</g>
	</g>
	<g>
		<g>
			<path class="st2" d="M747.8,319.4l-3.6-1.8c0.9-1.8,1.9-3.6,2.9-5.4l3.5,2C749.6,315.9,748.6,317.7,747.8,319.4z"/>
		</g>
		<g>
			<path class="st2" d="M757,304.1l-3.3-2.3c2.4-3.3,4.9-6.6,7.6-9.8l3,2.6C761.8,297.6,759.3,300.8,757,304.1z M838.1,289.6     C838.1,289.6,838.1,289.6,838.1,289.6c-2.8,0-5.5-0.5-8-1.4l1.4-3.8c2.1,0.8,4.3,1.1,6.6,1.1c0,0,0,0,0,0c1.5,0,2.9-0.2,4.3-0.5     l0.8,3.9C841.5,289.4,839.8,289.6,838.1,289.6z M772.7,285.8l-2.8-2.9c2.9-2.9,6-5.7,9.2-8.3l2.5,3.1     C778.5,280.3,775.5,283,772.7,285.8z M854.8,282.8l-2.7-2.9c2.7-2.5,4.8-5.6,6.5-9.3l3.7,1.6C860.4,276.4,857.9,280,854.8,282.8z      M819.9,279.5c-1.6-3-2.4-6.5-2.4-10.2c0-0.9,0.1-1.9,0.2-2.8l4,0.4c-0.1,0.8-0.1,1.6-0.1,2.4c0,3,0.7,5.9,2,8.3L819.9,279.5z      M791.3,270.5l-2.3-3.3c3.4-2.3,7-4.5,10.5-6.5l2,3.5C798,266.2,794.6,268.3,791.3,270.5z M865.3,259.7l-4-0.2c0-0.3,0-0.6,0-1     c0-1.8-0.3-3.3-0.9-4.5c-0.7-1.3-1.6-2.4-3-3.2l2.1-3.4c2,1.2,3.5,2.8,4.5,4.8c0.9,1.8,1.4,3.9,1.4,6.3     C865.4,258.9,865.4,259.3,865.3,259.7z M812.3,258.8l-1.6-3.7c3.8-1.7,7.7-3.2,11.5-4.5l0.8,2.3c2.1-2.9,4.7-5.5,7.9-8l2.5,3.1     c-3.3,2.6-5.9,5.4-7.9,8.4l-2.7-1.7C819.2,255.9,815.7,257.3,812.3,258.8z M835.1,251.1l-0.9-3.9c2.7-0.6,5.4-1.2,8-1.7     c1.5-0.3,2.9-0.4,4.3-0.5l0.3,4c-1.3,0.1-2.6,0.2-3.9,0.5C840.3,249.9,837.6,250.4,835.1,251.1z M843.3,241.6l-1.9-3.5     c0.6-0.3,1.1-0.6,1.7-0.9c3.1-1.6,6.2-3.1,9.4-4.5l1.6,3.7c-3.1,1.4-6.2,2.8-9.2,4.4C844.4,241,843.9,241.3,843.3,241.6z      M969.8,236.3c-2.8-2.3-6.2-4.3-10-6l1.6-3.7c4.1,1.8,7.8,4,10.9,6.5L969.8,236.3z M865.4,231.9l-1.3-3.8     c3.9-1.4,7.9-2.6,11.8-3.6l1,3.9C873,229.4,869.2,230.6,865.4,231.9z M948.5,226.5c-2.9-0.7-5.9-1.3-9-1.8     c-0.9-0.1-1.8-0.3-2.8-0.4l0.5-4c0.9,0.1,1.9,0.3,2.8,0.4c3.2,0.5,6.4,1.1,9.4,1.9L948.5,226.5z M888.7,225.7l-0.7-3.9     c4-0.7,8.2-1.3,12.2-1.8l0.4,4C896.7,224.4,892.6,225,888.7,225.7z M924.8,223.3c-4-0.2-8.1-0.2-12.1-0.1l-0.1-4     c4.1-0.1,8.3-0.1,12.4,0.1L924.8,223.3z"/>
		</g>
		<g>
			<path class="st2" d="M979.7,250c-0.6-1.8-1.3-3.5-2.3-5.1l3.5-2c1.1,1.9,2,3.8,2.6,5.8L979.7,250z"/>
		</g>
	</g>
	<g>
		<g>
			<path class="st2" d="M421.8,288.3c-2-0.1-4-0.2-6-0.2l0.1-4c2,0.1,4,0.1,6,0.2L421.8,288.3z"/>
		</g>
		<g>
			<path class="st2" d="M298.6,308.2l-4-0.5l1.4-11.6l3.1,0.4l-0.4-4c3.9-0.4,7.8-0.8,11.7-1.2l0.4,4c-3.9,0.4-7.7,0.8-11.6,1.2     l0.7,0.1L298.6,308.2z M252.2,300.1l0-4c3.4,0,6.8-0.2,9.6-0.4l2-0.1l0.2,4l-2,0.1C259.1,299.8,255.7,300,252.2,300.1z      M240.2,299.4c-3.1-0.4-5.9-1-8.7-1.9c-1.1-0.3-2.1-0.7-3.2-1.1l1.5-3.7c0.9,0.4,1.9,0.7,2.9,1c2.5,0.8,5.1,1.4,8,1.7     L240.2,299.4z M275.8,298.7l-0.3-4c3.7-0.3,7.5-0.6,11.7-1l0.4,4C283.4,298.1,279.5,298.4,275.8,298.7z M322.6,294l-0.4-4     c3.9-0.4,7.8-0.9,11.7-1.3l0.4,4C330.3,293.1,326.4,293.6,322.6,294z M345.9,291.5l-0.4-4c3.9-0.4,7.8-0.8,11.7-1.1l0.4,4     C353.6,290.7,349.8,291.1,345.9,291.5z M217.8,290c-3.4-2.9-5.9-6.2-7.6-9.9l3.6-1.7c1.5,3.1,3.7,6,6.6,8.5L217.8,290z      M369.2,289.4l-0.3-4c4-0.3,8-0.6,11.7-0.8l0.2,4C377.1,288.9,373.2,289.1,369.2,289.4z M392.5,288.1l-0.1-4     c4-0.1,8-0.2,11.8-0.2l0,4C400.4,288,396.5,288,392.5,288.1z M301.5,284.9l-4-0.4c0.5-4.5,0.8-8.1,0.9-11.6l4,0.2     C302.3,276.6,302,280.4,301.5,284.9z M211.9,268l-4-0.2c0.2-4,1.4-8,3.4-12l3.6,1.8C213.1,261.1,212.1,264.6,211.9,268z      M298.1,261.5c-0.4-4-1.2-7.8-2.3-11l3.8-1.3c1.2,3.6,2,7.6,2.4,11.9L298.1,261.5z M221.1,248.4l-3-2.7c2.6-2.9,5.7-5.7,9-8.1     l2.4,3.2C226.4,243.1,223.6,245.6,221.1,248.4z M290.8,240.7c-0.6-0.8-1.3-1.5-1.9-2.2c-1.8-1.9-3.9-3.6-6.3-5l2-3.4     c2.6,1.5,5,3.5,7.1,5.7c0.8,0.8,1.5,1.7,2.2,2.5L290.8,240.7z M239.3,235l-1.7-3.6c3.7-1.7,7.5-3.2,11.3-4.2l1.1,3.9     C246.3,232,242.7,233.3,239.3,235z M272.3,229.7c-3.5-0.7-7.3-0.9-11.2-0.6l-0.3-4c4.2-0.3,8.4-0.1,12.2,0.7L272.3,229.7z"/>
		</g>
		<g>
			
				<rect x="292.9" y="319.7" transform="matrix(0.9927 0.1204 -0.1204 0.9927 40.9923 -33.1509)" class="st2" width="4" height="6"/>
		</g>
	</g>
</g>
<g id="Layer_11">
	<g>
		<g>
			<polygon class="st2" points="861,840.9 493.2,840.9 493.2,903.2 861,903.2 861,903.2    "/>
		</g>
		<g>
			<polygon class="st3" points="857.6,844.5 553.7,844.5 553.7,899.6 857.6,899.6 857.6,899.6    "/>
		</g>
		<g>
			<rect x="496.9" y="844.5" class="st4" width="56.7" height="55.1"/>
		</g>
		<g>
			<g>
				<rect x="508.6" y="854.4" class="st2" width="34.8" height="6.3"/>
			</g>
			<g>
				<rect x="508.6" y="868" class="st2" width="34.8" height="6.3"/>
			</g>
			<g>
				<rect x="508.6" y="881.5" class="st2" width="34.8" height="6.3"/>
			</g>
		</g>
	</g>
	<g>
		<rect x="97" y="758.1" class="st1" width="47" height="47"/>
	</g>
</g>
<g id="dolla">
	<g>
		<g>
			<g>
				<g>
					<path class="st5" d="M266.1,573.4c0.5,1.8,1.8,3,2.9,2.6l73.8-22.6c1.2-0.3,1.7-2.1,1.2-3.9c0,0-19.5-29.1-28.5-104.2       c-9-75-27.6-100.8-27.6-100.8c-0.5-1.8-1.8-3-2.9-2.6l-73.8,22.6c-1.1,0.3-1.7,2.1-1.2,3.9c0,0,15.2,17.3,26.7,97.5       C248.2,546.1,266.1,573.4,266.1,573.4z"/>
				</g>
				<g>
					<path class="st6" d="M235.9,370.3c0,0.1,0.1,0.1,0.1,0.2c2.9,10.5,0.2,20.7-6,23.8c0.8,2.5,1.5,5.1,2.3,7.9       c4.9,17.6,9.1,39.1,12.7,63.7c3.3,23.1,7.5,43.8,12.4,61.6c1.7,6.2,3.3,11.2,4.8,15.8c0.7-0.4,1.4-0.8,2.1-1       c7.1-2.2,15.4,5,18.6,16.2l35.5-10.9c-2.8-10.3-0.3-20.3,5.7-23.6c-1.6-4.7-3.1-9.7-4.8-15.5c-5.2-19-9.3-40.4-12.1-63.7       c-2.6-21.4-6.2-40.6-10.7-57.1c-1.4-5-2.7-9.3-4-13.1c-0.8,0.5-1.5,0.9-2.4,1.2c-7.2,2.2-15.5-5.1-18.6-16.4l0,0L235.9,370.3z        M270.5,433.8c12.3-3.8,25.3,4.5,29.1,18.4c3.8,13.9-3.2,28.3-15.5,32c-12.3,3.8-25.3-4.5-29.1-18.4       C251.2,451.8,258.2,437.5,270.5,433.8z"/>
				</g>
				<g>
					<g>
						<path class="st6" d="M294.3,451.7l1,3.6l-2.2,0.7c0.4,2.7,0.3,5.4-0.5,8.3c-1,3.5-2.9,5.7-5.8,6.6c-3.2,1-5.8,0.4-7.8-1.9        c-1.9-2.1-3.4-4.5-4.5-7.3l-7.8,2.4c1.4,3.8,3.1,6.3,5.2,7.4l-2.9,6.5c-1.9-1.3-3.6-3-5.2-5.2c-1.3-1.8-2.3-4.1-3.2-6.9        l-2.2,0.7l-1-3.6l2.2-0.7c-0.6-3.1-0.4-6.1,0.5-9c1.1-3.4,2.9-5.5,5.6-6.3c3.3-1,6.1-0.4,8.3,1.8c2.1,2.1,3.8,4.6,4.9,7.6        l7-2.1c-0.9-2.8-2.3-4.8-4.4-6l2.9-6.5c1.9,1.3,3.5,2.8,4.8,4.6c1,1.4,1.9,3.4,2.8,6.1L294.3,451.7z M280.8,459.8        c0.7,1.3,1.4,2.1,2.1,2.5c1.1,0.6,2.2,0.3,3.2-1c0.6-0.8,0.9-1.9,0.8-3.3L280.8,459.8z M270.4,455.4c-1.4-0.5-2.7-0.1-3.7,1.1        c-0.6,0.8-0.9,2.1-0.7,3.9l7.1-2.2C272.2,456.7,271.3,455.7,270.4,455.4z"/>
					</g>
				</g>
			</g>
		</g>
		<g>
			<g>
				<g>
					<path class="st7" d="M242.7,465.7c-0.2,29.5,6.6,54.1,8.8,71l42.7-0.5c-7.5-48.6-6.2-98.9-5.4-149.7c1-10.3,11.9-24,10.3-34.6       l-71,11.2c-1.2,0.2-2,1.8-1.8,3.6C226.4,366.8,243.3,384.8,242.7,465.7z"/>
				</g>
				<g>
					<path class="st5" d="M261.2,575.3c0.2,1.9,1.4,3.2,2.5,3l76.2-12.1c1.2-0.2,1.9-1.8,1.7-3.7c0,0-15.2-31.5-13.7-107.1       c1.5-75.6-13.3-103.6-13.3-103.6c-0.2-1.8-1.4-3.2-2.5-3l-76.2,12.1c-1.2,0.2-1.9,1.9-1.7,3.7c0,0,12.6,19.3,12.9,100.2       C247.3,545.7,261.2,575.3,261.2,575.3z"/>
				</g>
				<g>
					<path class="st6" d="M259.5,369.9c0,0.1,0,0.1,0.1,0.2c1.4,10.8-2.7,20.5-9.3,22.8c0.4,2.6,0.8,5.2,1.2,8.2       c2.4,18.1,3.6,40,3.7,64.9c0.1,23.3,1.3,44.4,3.7,62.7c0.8,6.3,1.7,11.6,2.6,16.3c0.7-0.3,1.5-0.6,2.3-0.7       c7.4-1.2,14.6,7.1,16.1,18.7l36.7-5.8c-1.4-10.6,2.5-20.1,8.9-22.6c-0.9-4.9-1.8-10-2.6-16c-2.5-19.5-3.6-41.3-3.1-64.7       c0.4-21.5-0.5-41-2.7-58c-0.7-5.2-1.4-9.6-2.2-13.6c-0.8,0.4-1.6,0.7-2.5,0.8c-7.4,1.2-14.7-7.2-16.2-18.9l0,0L259.5,369.9z        M284.9,437.6c12.7-2,24.5,8,26.2,22.3c1.8,14.3-7.1,27.5-19.8,29.5c-12.7,2-24.5-8-26.2-22.3       C263.3,452.8,272.2,439.6,284.9,437.6z"/>
				</g>
				<g>
					<g>
						<path class="st6" d="M306,458.7l0.5,3.7l-2.3,0.4c0.1,2.7-0.5,5.4-1.6,8.1c-1.5,3.3-3.6,5.2-6.6,5.7c-3.3,0.5-5.8-0.5-7.4-2.9        c-1.6-2.3-2.8-4.9-3.5-7.9l-8.1,1.3c0.9,3.9,2.2,6.6,4.2,8.1l-3.8,6.1c-1.7-1.6-3.2-3.5-4.4-5.9c-1-2-1.8-4.4-2.3-7.3        l-2.3,0.3l-0.5-3.7l2.3-0.4c-0.2-3.2,0.4-6.1,1.8-8.9c1.5-3.2,3.7-5.1,6.4-5.5c3.4-0.6,6.1,0.4,8,2.9c1.8,2.4,3.1,5.1,3.8,8.2        l7.2-1.1c-0.5-2.9-1.7-5.1-3.5-6.5l3.8-6c1.7,1.5,3.1,3.3,4.1,5.2c0.8,1.6,1.4,3.7,1.9,6.4L306,458.7z M291.5,464.8        c0.5,1.4,1.1,2.3,1.7,2.7c1,0.8,2.1,0.6,3.3-0.5c0.7-0.7,1.1-1.7,1.2-3.2L291.5,464.8z M281.8,459c-1.4-0.7-2.6-0.5-3.8,0.6        c-0.7,0.7-1.2,2-1.2,3.7l7.3-1.2C283.4,460.5,282.7,459.4,281.8,459z"/>
					</g>
				</g>
			</g>
		</g>
		<g>
			<g>
				<g>
					<path class="st7" d="M254.9,469.6c-0.2,28.1,1.3,50,3.4,66.7h52.3c-7.1-47.8-5.8-97.2-5-147.2c1-10.3,11.9-24,10.3-34.6       l-71,11.2c-1.2,0.2-2,1.8-1.8,3.6C243,369.3,255.4,388.7,254.9,469.6z"/>
				</g>
				<g>
					<path class="st5" d="M260.4,577.4c0.1,1.9,1.1,3.3,2.3,3.2l77-5.8c1.2-0.1,2.1-1.6,2-3.5c0,0-12.6-32.7-4.8-107.9       c7.7-75.2-4.7-104.4-4.7-104.4c-0.1-1.9-1.1-3.3-2.3-3.2l-77,5.7c-1.2,0.1-2.1,1.7-2,3.5c0,0,11,20.3,4.5,100.9       C249,546.8,260.4,577.4,260.4,577.4z"/>
				</g>
				<g>
					<path class="st6" d="M275.8,372.6c0,0.1,0,0.1,0,0.2c0.5,10.9-4.4,20.2-11.1,21.9c0.2,2.6,0.4,5.3,0.5,8.2       c0.8,18.3,0.3,40.1-1.7,65c-1.9,23.2-2.4,44.4-1.5,62.8c0.3,6.4,0.7,11.7,1.2,16.5c0.8-0.3,1.5-0.5,2.3-0.5       c7.5-0.6,13.9,8.3,14.5,19.9l37-2.8c-0.5-10.7,4.2-19.8,10.7-21.8c-0.5-4.9-0.9-10.1-1.2-16.1c-0.9-19.7-0.1-41.5,2.3-64.8       c2.2-21.4,2.9-40.9,2.1-58c-0.2-5.2-0.6-9.7-1-13.7c-0.8,0.3-1.7,0.5-2.6,0.6c-7.5,0.6-14-8.4-14.5-20.1l0,0L275.8,372.6z        M295.5,442.1c12.8-0.9,23.7,10,24.3,24.4c0.6,14.4-9.3,26.9-22.2,27.8c-12.8,1-23.7-10-24.3-24.4       C272.7,455.5,282.7,443.1,295.5,442.1z"/>
				</g>
				<g>
					<g>
						<path class="st6" d="M314.8,464.9l0.2,3.8l-2.3,0.2c-0.2,2.7-0.9,5.3-2.3,8c-1.7,3.2-4.1,4.9-7.1,5.1        c-3.3,0.2-5.7-0.9-7.2-3.5c-1.4-2.4-2.3-5.2-2.8-8.2l-8.1,0.6c0.5,4,1.7,6.8,3.5,8.4l-4.3,5.7c-1.6-1.7-2.9-3.8-3.9-6.2        c-0.8-2-1.4-4.5-1.6-7.4l-2.3,0.1l-0.1-3.8l2.3-0.2c0.1-3.2,0.9-6.1,2.5-8.7c1.8-3.1,4.1-4.7,6.8-4.9c3.5-0.3,6,0.9,7.7,3.6        c1.6,2.5,2.7,5.4,3.1,8.5l7.3-0.5c-0.2-3-1.2-5.2-3-6.8l4.3-5.7c1.6,1.7,2.8,3.5,3.6,5.5c0.7,1.6,1.1,3.8,1.4,6.5L314.8,464.9        z M299.8,469.8c0.4,1.4,0.9,2.4,1.5,2.9c0.9,0.8,2.1,0.8,3.3-0.2c0.8-0.6,1.3-1.6,1.5-3.1L299.8,469.8z M290.6,463.2        c-1.3-0.8-2.6-0.7-3.8,0.3c-0.8,0.7-1.3,1.9-1.5,3.6l7.4-0.6C292.1,464.8,291.5,463.7,290.6,463.2z"/>
					</g>
				</g>
			</g>
		</g>
	</g>
</g>
<g id="window">
	<g>
		<g>
			<path class="st8" d="M979,385.8H390.1V348c0-3.2,2.6-5.9,5.9-5.9h577.2c3.2,0,5.9,2.6,5.9,5.9V385.8z"/>
		</g>
		<g>
			<rect x="390.1" y="385.8" class="st4" width="588.9" height="12.1"/>
		</g>
		<g>
			<rect x="390.1" y="397.8" class="st2" width="588.9" height="325.9"/>
		</g>
		<g>
			<rect x="424.2" y="366.9" class="st2" width="438.1" height="12.4"/>
		</g>
		<g>
			<rect x="884.8" y="366.9" class="st9" width="60.9" height="12.4"/>
		</g>
		<g>
			<circle class="st10" cx="402.7" cy="354" r="5.9"/>
		</g>
		<g>
			<circle class="st11" cx="419.7" cy="354" r="5.9"/>
		</g>
		<g>
			<circle class="st12" cx="436.7" cy="354" r="5.9"/>
		</g>
		<g>
			<g>
				<rect x="405.2" y="390.6" class="st2" width="29.3" height="2.4"/>
			</g>
			<g>
				<rect x="444.5" y="390.6" class="st2" width="29.3" height="2.4"/>
			</g>
			<g>
				<rect x="484.2" y="390.6" class="st2" width="29.3" height="2.4"/>
			</g>
			<g>
				<rect x="523.8" y="390.6" class="st2" width="29.3" height="2.4"/>
			</g>
		</g>
		<g>
			<g>
				<g>
					<rect x="417.5" y="421.3" class="st2" width="106.5" height="78.3"/>
					<path class="st13" d="M524.7,500.3H416.9v-79.6h107.8V500.3z M418.1,499h105.3v-77H418.1V499z"/>
				</g>
				<g>
					<rect x="421.2" y="425.8" class="st4" width="99.2" height="58.4"/>
				</g>
				<g>
					<polygon class="st14" points="423.9,484.2 451.7,455 470.5,484.2      "/>
				</g>
				<g>
					<polygon class="st14" points="447.5,484.2 491,438.5 520.4,484.2      "/>
				</g>
				<g>
					<circle class="st14" cx="437" cy="440.6" r="6.3"/>
				</g>
			</g>
			<g>
				<g>
					<rect x="421.2" y="511.9" class="st15" width="75.8" height="6.8"/>
				</g>
				<g>
					<rect x="421.2" y="525.4" class="st7" width="104.6" height="3.6"/>
				</g>
				<g>
					<rect x="421.2" y="534.5" class="st7" width="104.6" height="3.6"/>
				</g>
				<g>
					<rect x="421.2" y="543.5" class="st7" width="82.2" height="3.6"/>
				</g>
			</g>
		</g>
		<g>
			<g>
				<g>
					<rect x="555.2" y="421.3" class="st2" width="106.5" height="78.3"/>
					<path class="st13" d="M662.3,500.3H554.5v-79.6h107.8V500.3z M555.8,499h105.3v-77H555.8V499z"/>
				</g>
				<g>
					<rect x="558.8" y="425.8" class="st4" width="99.2" height="58.4"/>
				</g>
				<g>
					<polygon class="st14" points="561.6,484.2 589.4,455 608.2,484.2      "/>
				</g>
				<g>
					<polygon class="st14" points="585.2,484.2 628.6,438.5 658.1,484.2      "/>
				</g>
				<g>
					<circle class="st14" cx="574.7" cy="440.6" r="6.3"/>
				</g>
			</g>
			<g>
				<g>
					<rect x="557" y="511.9" class="st15" width="49.1" height="6.8"/>
				</g>
				<g>
					<rect x="557" y="525.4" class="st7" width="104.6" height="3.6"/>
				</g>
				<g>
					<rect x="557" y="534.5" class="st7" width="104.6" height="3.6"/>
				</g>
			</g>
		</g>
		<g>
			<g>
				<g>
					<rect x="692.8" y="421.3" class="st2" width="106.5" height="78.3"/>
					<path class="st13" d="M800,500.3H692.2v-79.6H800V500.3z M693.5,499h105.3v-77H693.5V499z"/>
				</g>
				<g>
					<rect x="696.5" y="425.8" class="st4" width="99.2" height="58.4"/>
				</g>
				<g>
					<polygon class="st14" points="699.3,484.2 727.1,455 745.9,484.2      "/>
				</g>
				<g>
					<polygon class="st14" points="722.8,484.2 766.3,438.5 795.7,484.2      "/>
				</g>
				<g>
					<circle class="st14" cx="712.3" cy="440.6" r="6.3"/>
				</g>
			</g>
			<g>
				<g>
					<rect x="692.8" y="511.9" class="st15" width="16.1" height="6.8"/>
				</g>
				<g>
					<rect x="692.8" y="525.4" class="st7" width="104.6" height="3.6"/>
				</g>
				<g>
					<rect x="692.8" y="534.5" class="st7" width="66.9" height="3.6"/>
				</g>
				<g>
					<rect x="692.8" y="543.5" class="st7" width="44" height="3.6"/>
				</g>
			</g>
		</g>
		<g>
			<g>
				<g>
					<rect x="417.5" y="566.9" class="st2" width="106.5" height="78.3"/>
					<path class="st13" d="M524.7,645.8H416.9v-79.6h107.8V645.8z M418.1,644.6h105.3v-77H418.1V644.6z"/>
				</g>
				<g>
					<rect x="421.2" y="571.4" class="st4" width="99.2" height="58.4"/>
				</g>
				<g>
					<polygon class="st14" points="423.9,629.8 451.7,600.6 470.5,629.8      "/>
				</g>
				<g>
					<polygon class="st14" points="447.5,629.8 491,584.1 520.4,629.8      "/>
				</g>
				<g>
					<circle class="st14" cx="437" cy="586.1" r="6.3"/>
				</g>
			</g>
			<g>
				<g>
					<rect x="421.2" y="657.5" class="st15" width="32.1" height="6.8"/>
				</g>
				<g>
					<rect x="421.2" y="671" class="st7" width="104.6" height="3.6"/>
				</g>
				<g>
					<rect x="421.2" y="680.1" class="st7" width="104.6" height="3.6"/>
				</g>
				<g>
					<rect x="421.2" y="689.1" class="st7" width="82.2" height="3.6"/>
				</g>
			</g>
		</g>
		<g>
			<g>
				<g>
					<rect x="691.9" y="566.9" class="st2" width="106.5" height="78.3"/>
					<path class="st13" d="M799.1,645.8H691.3v-79.6h107.8V645.8z M692.5,644.6h105.3v-77H692.5V644.6z"/>
				</g>
				<g>
					<rect x="695.5" y="571.4" class="st4" width="99.2" height="58.4"/>
				</g>
				<g>
					<polygon class="st14" points="698.3,629.8 726.1,600.6 744.9,629.8      "/>
				</g>
				<g>
					<polygon class="st14" points="721.9,629.8 765.4,584.1 794.8,629.8      "/>
				</g>
				<g>
					<circle class="st14" cx="711.4" cy="586.1" r="6.3"/>
				</g>
			</g>
			<g>
				<g>
					<rect x="693.7" y="657.5" class="st15" width="105.1" height="6.8"/>
				</g>
				<g>
					<rect x="693.7" y="671" class="st7" width="104.6" height="3.6"/>
				</g>
				<g>
					<rect x="693.7" y="680.1" class="st7" width="104.6" height="3.6"/>
				</g>
			</g>
		</g>
		<g>
			<g>
				<g>
					<rect x="831.9" y="421.3" class="st2" width="106.5" height="78.3"/>
					<path class="st13" d="M939,500.3H831.2v-79.6H939V500.3z M832.5,499h105.3v-77H832.5V499z"/>
				</g>
				<g>
					<rect x="835.5" y="425.8" class="st4" width="99.2" height="58.4"/>
				</g>
				<g>
					<polygon class="st14" points="838.3,484.2 866.1,455 884.9,484.2      "/>
				</g>
				<g>
					<polygon class="st14" points="861.9,484.2 905.3,438.5 934.8,484.2      "/>
				</g>
				<g>
					<circle class="st14" cx="851.3" cy="440.6" r="6.3"/>
				</g>
			</g>
			<g>
				<g>
					<rect x="831.9" y="511.9" class="st15" width="16.1" height="6.8"/>
				</g>
				<g>
					<rect x="831.9" y="525.4" class="st7" width="104.6" height="3.6"/>
				</g>
				<g>
					<rect x="831.9" y="534.5" class="st7" width="66.9" height="3.6"/>
				</g>
				<g>
					<rect x="831.9" y="543.5" class="st7" width="44" height="3.6"/>
				</g>
			</g>
		</g>
		<g>
			<g>
				<g>
					<rect x="830.9" y="566.9" class="st2" width="106.5" height="78.3"/>
					<path class="st13" d="M938.1,645.8H830.3v-79.6h107.8V645.8z M831.6,644.6h105.3v-77H831.6V644.6z"/>
				</g>
				<g>
					<rect x="834.6" y="571.4" class="st4" width="99.2" height="58.4"/>
				</g>
				<g>
					<polygon class="st14" points="837.4,629.8 865.1,600.6 884,629.8      "/>
				</g>
				<g>
					<polygon class="st14" points="860.9,629.8 904.4,584.1 933.8,629.8      "/>
				</g>
				<g>
					<circle class="st14" cx="850.4" cy="586.1" r="6.3"/>
				</g>
			</g>
			<g>
				<g>
					<rect x="832.8" y="657.5" class="st15" width="105.1" height="6.8"/>
				</g>
				<g>
					<rect x="832.8" y="671" class="st7" width="104.6" height="3.6"/>
				</g>
				<g>
					<rect x="832.8" y="680.1" class="st7" width="104.6" height="3.6"/>
				</g>
			</g>
		</g>
		<g>
			<g>
				<g>
					<rect x="556.1" y="566.9" class="st2" width="106.5" height="78.3"/>
					<path class="st13" d="M663.2,645.8H555.4v-79.6h107.8V645.8z M556.7,644.6h105.3v-77H556.7V644.6z"/>
				</g>
				<g>
					<rect x="559.7" y="571.4" class="st4" width="99.2" height="58.4"/>
				</g>
				<g>
					<polygon class="st14" points="562.5,629.8 590.3,600.6 609.1,629.8      "/>
				</g>
				<g>
					<polygon class="st14" points="586.1,629.8 629.5,584.1 658.9,629.8      "/>
				</g>
				<g>
					<circle class="st14" cx="575.5" cy="586.1" r="6.3"/>
				</g>
			</g>
			<g>
				<g>
					<rect x="556.1" y="657.5" class="st15" width="75.8" height="6.8"/>
				</g>
				<g>
					<rect x="556.1" y="671" class="st7" width="104.6" height="3.6"/>
				</g>
				<g>
					<rect x="556.1" y="680.1" class="st7" width="66.9" height="3.6"/>
				</g>
				<g>
					<rect x="556.1" y="689.1" class="st7" width="44" height="3.6"/>
				</g>
			</g>
		</g>
	</g>
	<g>
		<g>
			<path class="st1" d="M1033.6,309.3v84.8c0,3.9,3.8,7.1,8.5,7.1h133.6l37.6,19v-19h0c4.7,0,8.5-3.2,8.5-7.1v-84.8     c0-3.9-3.8-7.1-8.5-7.1h-171.2C1037.4,302.2,1033.6,305.4,1033.6,309.3z"/>
		</g>
		<g>
			<path class="st2" d="M1133.9,271.2v84.8c0,3.9-3.8,7.1-8.5,7.1H991.8l-37.6,19v-19l0,0c-4.7,0-8.5-3.2-8.5-7.1v-84.8     c0-3.9,3.8-7.1,8.5-7.1h171.2C1130.1,264.1,1133.9,267.3,1133.9,271.2z"/>
		</g>
		<g>
			<rect x="964.2" y="292.2" class="st16" width="151.3" height="6.4"/>
		</g>
		<g>
			<rect x="964.2" y="308.1" class="st16" width="151.3" height="6.4"/>
		</g>
		<g>
			<rect x="996.6" y="324" class="st16" width="118.9" height="6.4"/>
		</g>
	</g>
</g>
<g id="bag">
	<g>
		<g>
			<g>
				<polygon class="st17" points="200.2,504 192.2,765.6 394.8,765.6 386.8,504     "/>
			</g>
			<g>
				<polygon class="st18" points="409.2,504 386.8,504 394.8,765.6 417.1,765.6     "/>
			</g>
			<g>
				<polygon class="st19" points="383.5,765.6 158.6,765.6 166.6,504 375.6,504     "/>
			</g>
			<g>
				<polygon class="st17" points="417.1,765.6 394.8,739.3 383.5,765.6     "/>
			</g>
		</g>
		<g>
			<g>
				<circle class="st17" cx="232.7" cy="541.5" r="8.4"/>
			</g>
			<g>
				<circle class="st17" cx="319.3" cy="541.5" r="8.4"/>
			</g>
			<g>
				<path class="st2" d="M284.1,612.3h-16.2c-21.3,0-38.7-17.4-38.7-38.7v-32.1c0-1.9,1.6-3.5,3.5-3.5c1.9,0,3.5,1.6,3.5,3.5v32.1      c0,17.5,14.2,31.7,31.7,31.7h16.2c17.5,0,31.7-14.2,31.7-31.7v-32.1c0-1.9,1.6-3.5,3.5-3.5c1.9,0,3.5,1.6,3.5,3.5v32.1      C322.8,595,305.4,612.3,284.1,612.3z"/>
			</g>
		</g>
	</g>
</g>
<g id="coin">
	<g>
		<g>
			<g>
				<g>
					<circle class="st20" cx="1060.9" cy="851.6" r="47.6"/>
				</g>
				<g>
					<path class="st21" d="M1060.9,905.9c-30,0-54.4-24.4-54.4-54.4c0-30,24.4-54.4,54.4-54.4c30,0,54.4,24.4,54.4,54.4       C1115.2,881.6,1090.8,905.9,1060.9,905.9z M1060.9,804.1c-26.2,0-47.5,21.3-47.5,47.5s21.3,47.5,47.5,47.5       c26.2,0,47.5-21.3,47.5-47.5S1087,804.1,1060.9,804.1z"/>
				</g>
			</g>
			<g>
				<g>
					<path class="st21" d="M1081.9,880.1c-3,2-8.1,4-14.4,4c-7.8,0-14.9-3-19.6-8.6c-3.7-4.1-6.1-9.7-7-16.6h-6V854h5.5       c0-0.5,0-1,0-1.5c0-1.5,0.1-2.9,0.2-4.3h-5.7v-4.8h6.4c1.2-6.8,4-12.4,7.9-16.4c4.8-5.1,11.2-8,19.1-8c5.8,0,10.3,1.6,13,3.1       l-1.9,6.4c-2.5-1.5-6.5-2.7-10.8-2.7c-5.2,0-9.6,1.8-12.9,5.2c-2.8,2.9-4.7,7.3-5.7,12.4h27v4.8H1049c-0.2,1.3-0.2,2.6-0.2,4.1       c0,0.6,0,1.1,0,1.6h28.1v4.8h-27.4c0.8,5.6,2.6,9.8,5.3,12.7c3.6,3.9,8.4,5.6,13.6,5.6c5.1,0,9.6-1.8,11.8-3.2L1081.9,880.1z"/>
				</g>
			</g>
		</g>
	</g>
	<g>
		<g>
			<g>
				<path class="st20" d="M1231.7,801.9h-105.1c-1.5,0-2.8-1.3-2.8-2.8v-13.2c0-1.5,1.3-2.8,2.8-2.8h105.1c1.5,0,2.8,1.3,2.8,2.8      v13.2C1234.5,800.6,1233.3,801.9,1231.7,801.9z"/>
			</g>
		</g>
		<g>
			<rect x="1175.8" y="783.1" class="st22" width="7.7" height="18.8"/>
		</g>
		<g>
			<rect x="1192.3" y="783.1" class="st22" width="29.2" height="18.8"/>
		</g>
	</g>
	<g>
		<g>
			<g>
				<path class="st20" d="M1231.7,821.4h-105.1c-1.5,0-2.8-1.3-2.8-2.8v-13.2c0-1.5,1.3-2.8,2.8-2.8h105.1c1.5,0,2.8,1.3,2.8,2.8      v13.2C1234.5,820.1,1233.3,821.4,1231.7,821.4z"/>
			</g>
		</g>
		<g>
			<rect x="1175.4" y="802.6" class="st22" width="7.7" height="18.8"/>
		</g>
		<g>
			<rect x="1191.9" y="802.6" class="st22" width="29.2" height="18.8"/>
		</g>
	</g>
	<g>
		<g>
			<g>
				<path class="st20" d="M1236.5,840.8h-105.1c-1.5,0-2.8-1.3-2.8-2.8v-13.2c0-1.5,1.3-2.8,2.8-2.8h105.1c1.5,0,2.8,1.3,2.8,2.8      V838C1239.3,839.6,1238.1,840.8,1236.5,840.8z"/>
			</g>
		</g>
		<g>
			<rect x="1183.6" y="822" class="st22" width="7.7" height="18.8"/>
		</g>
		<g>
			<rect x="1200.2" y="822" class="st22" width="29.2" height="18.8"/>
		</g>
	</g>
	<g>
		<g>
			<g>
				<path class="st20" d="M1236.5,860.3h-105.1c-1.5,0-2.8-1.3-2.8-2.8v-13.2c0-1.5,1.3-2.8,2.8-2.8h105.1c1.5,0,2.8,1.3,2.8,2.8      v13.2C1239.3,859,1238.1,860.3,1236.5,860.3z"/>
			</g>
		</g>
		<g>
			<rect x="1183.6" y="841.5" class="st22" width="7.7" height="18.8"/>
		</g>
		<g>
			<rect x="1200.2" y="841.5" class="st22" width="29.2" height="18.8"/>
		</g>
	</g>
	<g>
		<g>
			<g>
				<path class="st20" d="M1244.3,879.7h-105.1c-1.5,0-2.8-1.3-2.8-2.8v-13.2c0-1.5,1.3-2.8,2.8-2.8h105.1c1.5,0,2.8,1.3,2.8,2.8      v13.2C1247.1,878.5,1245.8,879.7,1244.3,879.7z"/>
			</g>
		</g>
		<g>
			<rect x="1157.7" y="861" class="st22" width="7.7" height="18.8"/>
		</g>
		<g>
			<rect x="1174.3" y="861" class="st22" width="29.2" height="18.8"/>
		</g>
	</g>
	<g>
		<g>
			<g>
				<path class="st20" d="M1244.3,899.2h-105.1c-1.5,0-2.8-1.3-2.8-2.8v-13.2c0-1.5,1.3-2.8,2.8-2.8h105.1c1.5,0,2.8,1.3,2.8,2.8      v13.2C1247.1,897.9,1245.8,899.2,1244.3,899.2z"/>
			</g>
		</g>
		<g>
			<rect x="1157.7" y="880.4" class="st22" width="7.7" height="18.8"/>
		</g>
		<g>
			<rect x="1174.3" y="880.4" class="st22" width="29.2" height="18.8"/>
		</g>
	</g>
	<g>
		<rect x="0" class="st1" width="1400" height="171"/>
	</g>
</g>
<g id="arrows">
	<g>
		<g>
			<g>
				<rect x="1156.4" y="631.3" class="st23" width="97.2" height="27.9"/>
			</g>
			<g>
				<g>
					<polygon class="st23" points="1244.7,675.8 1297.7,645.2 1244.7,614.6      "/>
				</g>
			</g>
		</g>
		<g>
			<g>
				<rect x="1116.5" y="586.6" class="st24" width="97.2" height="27.9"/>
			</g>
			<g>
				<g>
					<polygon class="st24" points="1125.4,570 1072.4,600.6 1125.4,631.2      "/>
				</g>
			</g>
		</g>
	</g>
</g>
<g id="enveloppe">
	<g>
		<g>
			<rect x="1152" y="428.9" class="st2" width="179.2" height="104.4"/>
		</g>
		<g>
			<path class="st25" d="M1152,533.3c3.7-2.3,7.3-4.6,11-6.8l11-6.8l11.1-6.7l11.1-6.7c7.4-4.5,14.9-8.8,22.3-13.3l22.4-13.1     l0.7-0.4l0.7,0.4l22.4,13.1c7.4,4.4,14.9,8.8,22.3,13.2l11.1,6.7l11.1,6.7l11,6.8c3.7,2.3,7.4,4.5,11,6.8     c-3.8-2-7.6-4.1-11.4-6.2l-11.4-6.3l-11.3-6.3l-11.3-6.4c-7.5-4.2-15-8.6-22.5-12.9l-22.4-13h1.4l-22.4,13     c-7.5,4.3-15,8.6-22.5,12.9l-11.3,6.4l-11.3,6.3l-11.4,6.3C1159.6,529.2,1155.8,531.2,1152,533.3z"/>
		</g>
		<g>
			<polygon class="st25" points="1241.6,496.7 1152,428.9 1331.2,428.9    "/>
		</g>
	</g>
</g>
<g id="cursor">
	<g>
		<g>
			<path class="st23" d="M743.4,602.9c-1.5,1.6-2.3,3.9-1.8,6.4l16,73.1c1.2,5.5,8,7.5,12,3.5l19.6-19.8l33.5,33.6     c5.8,5.8,15.1,5.8,20.9,0l0,0c0,0,0,0,0-0.1L743.4,602.9z"/>
		</g>
		<g>
			<path class="st26" d="M843.6,678.8L810,645.1l17.8-17.9c4-4,1.9-10.9-3.7-12l-74.2-14.4c-2.5-0.5-4.9,0.4-6.5,2.1l100.3,96.7     C849.4,693.9,849.4,684.6,843.6,678.8z"/>
		</g>
	</g>
</g>
<g id="title">
	<g>
		<g>
			<path class="st2" d="M282.4,111.8h-7.6l-14.1-40.1v58.8h-14.6V43.3h18.1l14.3,41.1l14.3-41.1H311v87.1h-14.6V71.7L282.4,111.8z"/>
			<path class="st2" d="M354.1,111.6h-17.9l-3.9,18.8h-14.9l20.6-87.1h14.2l20.6,87.1H358L354.1,111.6z M351.3,97.5l-6.1-29.3     l-6.1,29.3H351.3z"/>
			<path class="st2" d="M379.3,130.4V43.3H395l18.9,53.4V43.3h14.6v87.1h-15.7L393.9,77v53.4H379.3z"/>
			<path class="st2" d="M471.6,111.6h-17.9l-3.9,18.8h-14.9l20.6-87.1h14.2l20.6,87.1h-14.9L471.6,111.6z M468.7,97.5l-6.1-29.3     l-6.1,29.3H468.7z"/>
			<path class="st2" d="M494.7,123.3V50.5l7.1-7.1h30.4l7.1,7.1v18h-14.6v-9.5l-1.6-1.7h-12l-1.7,1.7v55.6l1.7,1.7h12l1.6-1.7V97.1     h-7.1V82.8h21.7v40.6l-7.1,7.1h-30.4L494.7,123.3z"/>
			<path class="st2" d="M548.7,130.4V43.3h41.7v14.1h-27.2v21.7h20.2v14.1h-20.2v23.1h27.2v14.1H548.7z"/>
			<path class="st2" d="M657.1,130.4h-14.4v-30.4l-19.9-56.7h15.8l11.3,36.6l11.3-36.6h15.8l-19.9,56.7V130.4z"/>
			<path class="st2" d="M725.3,50.5v72.9l-7.1,7.1h-29.3l-7.1-7.1V50.5l7.1-7.1h29.3L725.3,50.5z M708.9,57.6h-11l-1.6,1.6v55.6     l1.6,1.6h11l1.7-1.6V59.2L708.9,57.6z"/>
			<path class="st2" d="M778.9,123.3l-7.1,7.1h-29.3l-7.1-7.1v-80h14.6v71.4l1.6,1.6h11.2l1.6-1.6V43.3h14.6V123.3z"/>
			<path class="st2" d="M789,130.4V43.3h37.6l7.1,7.1v39l-7.1,7.1l7.1,33.9h-14.3l-7.1-33.9h-8.7v33.9H789z M817.6,82.4l1.6-1.7     V59.2l-1.6-1.6h-14v24.9H817.6z"/>
			<path class="st2" d="M870.4,130.4V43.3h14.6v87.1H870.4z"/>
			<path class="st2" d="M895,130.4V43.3h15.7l18.9,53.4V43.3h14.6v87.1h-15.7L909.6,77v53.4H895z"/>
			<path class="st2" d="M954.3,123.3V50.5l7.1-7.1h29.3l7.1,7.1v18h-14.6v-9.2l-1.7-1.7h-11l-1.7,1.7v55.2l1.7,1.7h11l1.7-1.7v-9.2     h14.6v18l-7.1,7.1h-29.3L954.3,123.3z"/>
			<path class="st2" d="M1050.3,50.5v72.9l-7.1,7.1h-29.3l-7.1-7.1V50.5l7.1-7.1h29.3L1050.3,50.5z M1033.9,57.6h-11l-1.6,1.6v55.6     l1.6,1.6h11l1.7-1.6V59.2L1033.9,57.6z"/>
			<path class="st2" d="M1096.6,111.8h-7.6l-14.1-40.1v58.8h-14.6V43.3h18.1l14.3,41.1l14.3-41.1h18.1v87.1h-14.6V71.7L1096.6,111.8     z"/>
			<path class="st2" d="M1135.3,130.4V43.3h41.7v14.1h-27.2v21.7h20.2v14.1h-20.2v23.1h27.2v14.1H1135.3z"/>
		</g>
	</g>
</g>
</svg>
